<svg xmlns="http://www.w3.org/2000/svg" xmlns:xlink="http://www.w3.org/1999/xlink" width="48" height="48" viewBox="0 0 48 48"><defs><clipPath id="a"><path d="M6.467,20.865a2.4,2.4,0,0,1,2.4-2.4h9.6v-9.6a2.4,2.4,0,0,1,4.8,0v9.6h9.6a2.4,2.4,0,0,1,0,4.8h-9.6v9.6a2.4,2.4,0,1,1-4.8,0v-9.6h-9.6a2.4,2.4,0,0,1-2.4-2.4M20.865,0A20.865,20.865,0,1,0,41.731,20.865,20.865,20.865,0,0,0,20.865,0Z" fill="none"/></clipPath><linearGradient id="b" x1="0.013" y1="0.987" x2="0.038" y2="0.987" gradientUnits="objectBoundingBox"><stop offset="0" stop-color="#80b4ee"/><stop offset="1" stop-color="#6da1ee"/></linearGradient></defs><g transform="translate(5.28 5)"><rect width="48" height="48" transform="translate(-5.28 -5)" fill="#fff"/><g transform="translate(-2.28 -2)" clip-path="url(#a)"><path d="M0,0H42.871V42.871H0Z" transform="translate(-1.156 0.032) rotate(-1.588)" fill="url(#b)"/></g></g></svg>