<svg xmlns="http://www.w3.org/2000/svg" xmlns:xlink="http://www.w3.org/1999/xlink" width="48" height="48" viewBox="0 0 48 48"><defs><clipPath id="a"><path d="M7.782,19.542a2.3,2.3,0,0,0-2.192,2.394v3.454A22.516,22.516,0,0,1,2.822,36.257L.334,40.766A2.568,2.568,0,0,0,0,41.931c0,.027,0,.053,0,.079v.043A2.3,2.3,0,0,0,2.2,44.42H19.814a.74.74,0,0,0,.306-.072,9.674,9.674,0,0,0,3.48-3.315c1.743-2.489,1.318-3.815,1.318-3.815a16.962,16.962,0,0,1,.844,3.265,7.858,7.858,0,0,1-.506,3.5.319.319,0,0,0,.275.439h5.524c1.8,0,4.058-5.839,4.067-12.361V31.98c-.011-6.552-.89-12.439-3.148-12.439ZM20.9,0a2.3,2.3,0,0,0-2.2,2.394v8.369H9.316a2.3,2.3,0,0,0-2.2,2.393v2.394a2.3,2.3,0,0,0,2.2,2.394h22a2.3,2.3,0,0,0,2.2-2.394V13.155a2.3,2.3,0,0,0-2.2-2.393H23.1V2.394A2.3,2.3,0,0,0,20.9,0Z" fill="none"/></clipPath><linearGradient id="b" y1="1" x2="0.027" y2="1" gradientUnits="objectBoundingBox"><stop offset="0" stop-color="#84b6fc"/><stop offset="1" stop-color="#618cea"/></linearGradient></defs><g transform="translate(14.6 -3)"><rect width="48" height="48" transform="translate(-14.6 3)" fill="#fff"/><g transform="translate(-8.6 5)" clip-path="url(#a)"><rect width="35.121" height="44.42" transform="translate(0 0)" fill="url(#b)"/></g></g></svg>