<svg xmlns="http://www.w3.org/2000/svg" xmlns:xlink="http://www.w3.org/1999/xlink" width="48" height="48" viewBox="0 0 48 48">
  <defs>
    <style>
      .cls-1, .cls-4, .cls-5 {
        fill: none;
      }

      .cls-2 {
        opacity: 0.2;
      }

      .cls-3 {
        clip-path: url(#clip-path);
      }

      .cls-4 {
        stroke: #000;
      }

      .cls-4, .cls-5 {
        stroke-miterlimit: 10;
        stroke-width: 2px;
      }

      .cls-5 {
        stroke: #1e50a2;
      }
    </style>
    <clipPath id="clip-path">
      <rect id="矩形_692" data-name="矩形 692" class="cls-1" width="48" height="48" transform="translate(671.3 144.108)"/>
    </clipPath>
  </defs>
  <g id="feedback" transform="translate(-671.3 -144.108)">
    <g id="组_1451" data-name="组 1451" class="cls-2">
      <g id="组_1450" data-name="组 1450">
        <g id="组_1449" data-name="组 1449" class="cls-3">
          <rect id="矩形_691" data-name="矩形 691" class="cls-1" width="47" height="47" transform="translate(671.8 144.608)"/>
          <path id="路径_1131" data-name="路径 1131" class="cls-1" d="M718.3,191.108h-46v-46h46Zm1-47h-48v48h48Z"/>
        </g>
      </g>
    </g>
    <g id="组_1452" data-name="组 1452">
      <rect id="矩形_693" data-name="矩形 693" class="cls-4" width="15.557" height="5.081" rx="1.802" transform="translate(687.522 149.907)"/>
      <path id="路径_1132" data-name="路径 1132" class="cls-4" d="M703.908,152.448h3.743a1.836,1.836,0,0,1,1.836,1.835v30.191a1.836,1.836,0,0,1-1.836,1.836h-24.7a1.836,1.836,0,0,1-1.836-1.836V154.283a1.836,1.836,0,0,1,1.836-1.835h4.468"/>
      <path id="路径_1133" data-name="路径 1133" class="cls-5" d="M693.038,177.893l-3.289.443a1.338,1.338,0,0,1-1.515-1.279l-.116-3.317a1.9,1.9,0,0,1,.447-1.294l7.944-9.413a1.277,1.277,0,0,1,1.8-.152l3.723,3.142a1.275,1.275,0,0,1,.152,1.8l-7.943,9.413A1.905,1.905,0,0,1,693.038,177.893Z"/>
    </g>
  </g>
</svg>
