<svg xmlns="http://www.w3.org/2000/svg" xmlns:xlink="http://www.w3.org/1999/xlink" width="48" height="48" viewBox="0 0 48 48"><defs><clipPath id="a"><path d="M19.494,0C8.745,0,0,9.113,0,20.4v.033a2.26,2.26,0,0,0,.016.237c-.01.147-.016.3-.016.445v5.726a5.517,5.517,0,0,0,5.286,5.724H6.608a5.517,5.517,0,0,0,5.285-5.724V21.113a5.519,5.519,0,0,0-5.285-5.727H5.287a4.82,4.82,0,0,0-.566.034A15.6,15.6,0,0,1,19.494,4.294,15.6,15.6,0,0,1,34.267,15.42a4.848,4.848,0,0,0-.567-.033H32.379a5.518,5.518,0,0,0-5.285,5.726v5.726a5.518,5.518,0,0,0,5.285,5.725h.976a14.632,14.632,0,0,1-6.924,6.414,2.815,2.815,0,0,0-2.82-.776l-3.829,1.11A3.258,3.258,0,0,0,17.7,43.249a3.03,3.03,0,0,0,2.843,2.389h.043a2.777,2.777,0,0,0,.732-.1l3.83-1.112a3.152,3.152,0,0,0,2.187-2.753h0a17.657,17.657,0,0,0,9.453-10.184,5.868,5.868,0,0,0,2.2-4.547v-5.92c0-.118-.006-.234-.015-.35.008-.07.013-.14.015-.212v-.237C38.895,9.018,30.185,0,19.494,0Z" fill="none"/></clipPath><linearGradient id="b" x1="0.046" y1="1.025" x2="0.067" y2="1.025" gradientUnits="objectBoundingBox"><stop offset="0" stop-color="#8ce3a2"/><stop offset="1" stop-color="#64c987"/></linearGradient></defs><g transform="translate(4.6 1)"><rect width="48" height="48" transform="translate(-4.6 -1)" fill="#fff"/><g transform="translate(0.4 0)" clip-path="url(#a)"><path d="M.041.042,46.668-.046l-.082,39.973-46.627.088Z" transform="matrix(0.024, -1, 1, 0.024, -1.038, 45.652)" fill="url(#b)"/></g></g></svg>