<svg xmlns="http://www.w3.org/2000/svg" xmlns:xlink="http://www.w3.org/1999/xlink" width="48" height="48" viewBox="0 0 48 48"><defs><clipPath id="a"><path d="M19.885,0C14.812,0,10.7,4.469,10.7,9.983s4.111,9.982,9.184,9.982,9.183-4.469,9.183-9.982S24.956,0,19.885,0Z" transform="translate(-10.701)" fill="none"/></clipPath><clipPath id="b"><path d="M19.029,21.947a8.9,8.9,0,0,1-7.11-3.666A18.623,18.623,0,0,0,0,35.484c0,.215.026.423.033.636H29.809a9.277,9.277,0,0,1-3.155-7.059A9.082,9.082,0,0,1,31.31,20.98a19.489,19.489,0,0,0-5.078-2.835,8.919,8.919,0,0,1-7.2,3.8" transform="translate(0 -18.145)" fill="none"/></clipPath><clipPath id="c"><path d="M32.945,28.779a.885.885,0,0,1,.845-.919h3.383V24.184a.848.848,0,1,1,1.691,0V27.86h3.382a.923.923,0,0,1,0,1.839H38.864v3.676a.848.848,0,1,1-1.691,0V29.7H33.79a.885.885,0,0,1-.845-.92m-2.279,0c0,4.414,3.292,7.992,7.353,7.992,4.024,0,7.293-3.515,7.352-7.873V28.66c-.059-4.358-3.328-7.872-7.352-7.872-4.061,0-7.353,3.577-7.353,7.991" transform="translate(-30.666 -20.788)" fill="none"/></clipPath></defs><g transform="translate(3 6)"><rect width="48" height="48" transform="translate(-3 -6)" fill="#fff"/><g transform="translate(9.845)"><g clip-path="url(#a)"><path d="M.022.023,18.893-.023l-.045,20.509-18.871.045Z" transform="translate(-0.531 -0.007) rotate(-1.588)" fill="#e6b71c"/></g></g><g transform="translate(0 18.145)"><g clip-path="url(#b)"><path d="M.02.038,31.779-.038l-.042,18.91-31.759.076Z" transform="translate(-0.479 -0.024) rotate(-1.588)" fill="#e6b71c"/></g></g><g transform="translate(28.213 20.788)"><g clip-path="url(#c)"><path d="M.017.018,15.125-.018,15.088,16.4l-15.107.036Z" transform="translate(-0.425 -0.005) rotate(-1.588)" fill="#e6b71c"/></g></g></g></svg>