<svg xmlns="http://www.w3.org/2000/svg" xmlns:xlink="http://www.w3.org/1999/xlink" width="48" height="48" viewBox="0 0 48 48">
  <defs>
    <style>
      .cls-1, .cls-4, .cls-5 {
        fill: none;
      }

      .cls-2 {
        opacity: 0.2;
      }

      .cls-3 {
        clip-path: url(#clip-path);
      }

      .cls-4 {
        stroke: #000;
      }

      .cls-4, .cls-5 {
        stroke-linecap: round;
        stroke-miterlimit: 10;
        stroke-width: 2px;
      }

      .cls-5 {
        stroke: #1e50a2;
      }
    </style>
    <clipPath id="clip-path">
      <rect id="矩形_689" data-name="矩形 689" class="cls-1" width="48" height="48" transform="translate(574.392 145.196)"/>
    </clipPath>
  </defs>
  <g id="laboratory" transform="translate(-574.392 -145.196)">
    <g id="组_1444" data-name="组 1444" class="cls-2">
      <g id="组_1443" data-name="组 1443">
        <g id="组_1442" data-name="组 1442" class="cls-3">
          <rect id="矩形_688" data-name="矩形 688" class="cls-1" width="47" height="47" transform="translate(574.892 145.696)"/>
          <path id="路径_1130" data-name="路径 1130" class="cls-1" d="M621.392,192.2h-46v-46h46Zm1-47h-48v48h48Z"/>
        </g>
      </g>
    </g>
    <g id="组_1447" data-name="组 1447">
      <path id="矩形_690" data-name="矩形 690" class="cls-4" d="M0,0H28.342a0,0,0,0,1,0,0V19.087a2.394,2.394,0,0,1-2.394,2.394H2.394A2.394,2.394,0,0,1,0,19.087V0A0,0,0,0,1,0,0Z" transform="translate(584.131 155.468)"/>
      <line id="直线_107" data-name="直线 107" class="cls-4" x2="37.847" transform="translate(579.468 155.468)"/>
      <line id="直线_108" data-name="直线 108" class="cls-5" y2="6.49" transform="translate(598.302 163.205)"/>
      <g id="组_1445" data-name="组 1445">
        <line id="直线_109" data-name="直线 109" class="cls-5" y2="6.49" transform="translate(592.186 164.308)"/>
        <line id="直线_110" data-name="直线 110" class="cls-5" y2="6.49" transform="translate(604.418 164.308)"/>
        <line id="直线_111" data-name="直线 111" class="cls-5" y2="11.232" transform="translate(598.302 159.565)"/>
      </g>
      <g id="组_1446" data-name="组 1446">
        <line id="直线_112" data-name="直线 112" class="cls-4" x1="6.49" y2="5.477" transform="translate(589.39 176.948)"/>
        <line id="直线_113" data-name="直线 113" class="cls-4" x2="6.49" y2="5.477" transform="translate(600.724 177.447)"/>
      </g>
    </g>
  </g>
</svg>
