<svg xmlns="http://www.w3.org/2000/svg" xmlns:xlink="http://www.w3.org/1999/xlink" width="48" height="48" viewBox="0 0 48 48"><defs><clipPath id="a"><path d="M8.044,31.191a1.183,1.183,0,0,1-.018-1.028,1.031,1.031,0,0,1,.619-.547,1.548,1.548,0,0,1,.485-.037h3.758a.973.973,0,0,1,.851.546,1.159,1.159,0,0,1-.144,1.274.936.936,0,0,1-.707.338H8.874a.977.977,0,0,1-.83-.547m-.059-7.528a1.593,1.593,0,0,1-.064-.635.96.96,0,0,1,.821-.908q2.85-.006,5.71.005a1.576,1.576,0,0,1,.75.088,1.185,1.185,0,0,1,.622,1.291.942.942,0,0,1-.877.779H8.83a.933.933,0,0,1-.846-.621M8.129,16.4a1.172,1.172,0,0,1-.008-1.328.969.969,0,0,1,.524-.386.557.557,0,0,1,.2-.032H24.81a.97.97,0,0,1,.814.552,1.165,1.165,0,0,1-.163,1.281.967.967,0,0,1-.719.323H8.918a.983.983,0,0,1-.79-.412M7.916,8.262a1.059,1.059,0,0,1,.767-1.05,1.264,1.264,0,0,1,.263-.028h15.8a.987.987,0,0,1,.874.551,1.166,1.166,0,0,1-.115,1.24.95.95,0,0,1-.694.366H8.836a1.037,1.037,0,0,1-.92-1.078M28.655,0H4.866A4.8,4.8,0,0,0,1.172,1.9,5.641,5.641,0,0,0,0,5.316V5.37c0,.027,0,.054,0,.081V35.687a5.641,5.641,0,0,0,.827,2.807,5.008,5.008,0,0,0,2.653,2.152,4.687,4.687,0,0,0,1.555.236H21.054c-.457-.617-.916-1.223-1.373-1.835a11.158,11.158,0,0,1-1.3-2.323,11.639,11.639,0,0,1-.43-7.52,10.97,10.97,0,0,1,1.934-3.838,10.079,10.079,0,0,1,3.488-2.849,9.179,9.179,0,0,1,7.906-.084c.822.385,1.581.9,2.373,1.358V5.41a5.8,5.8,0,0,0-.579-2.556A5.089,5.089,0,0,0,30.4.325,4.613,4.613,0,0,0,28.751,0Z" transform="translate(0 -0.001)" fill="none"/></clipPath><linearGradient id="b" x1="0.003" y1="1.071" x2="0.032" y2="1.071" gradientUnits="objectBoundingBox"><stop offset="0" stop-color="#aaa6fe"/><stop offset="1" stop-color="#8e86f3"/></linearGradient><clipPath id="c"><path d="M34.067,29a.939.939,0,0,1,1.411-.031,1.147,1.147,0,0,1,.2,1.23,1.561,1.561,0,0,1-.294.423l-4.32,5.18a1.8,1.8,0,0,1-.437.445.923.923,0,0,1-.917.037,1.834,1.834,0,0,1-.422-.357q-1.82-1.79-3.641-3.589a1.147,1.147,0,0,1-.218-1.281.98.98,0,0,1,.874-.589.926.926,0,0,1,.652.255c1.044,1.023,2.079,2.052,3.123,3.07,1.328-1.6,2.662-3.194,4-4.793m-3.748-6.158a8.586,8.586,0,0,0-3.485.866A9.116,9.116,0,0,0,23.72,26.3a10.06,10.06,0,0,0-1.7,3.412,10.547,10.547,0,0,0-.191,4.8A10.024,10.024,0,0,0,23.9,38.962a8.982,8.982,0,0,0,3.111,2.445,8.248,8.248,0,0,0,4.937.676,8.462,8.462,0,0,0,3.528-1.49,9.468,9.468,0,0,0,2.785-3.218A10.177,10.177,0,0,0,39.439,33.2a10.469,10.469,0,0,0-.877-4.923,9.557,9.557,0,0,0-2.582-3.435,8.455,8.455,0,0,0-5.406-2q-.127,0-.255,0" transform="translate(-21.645 -22.841)" fill="none"/></clipPath><linearGradient id="d" x1="-1.172" y1="0.989" x2="-1.118" y2="0.989" xlink:href="#b"/></defs><g transform="translate(12.28 2)"><rect width="48" height="48" transform="translate(-12.28 -2)" fill="#fff"/><g transform="translate(-7.28 1)"><g clip-path="url(#a)"><rect width="33.827" height="41.065" transform="matrix(1, -0.005, 0.005, 1, -0.196, 0.001)" fill="url(#b)"/></g><g transform="translate(19.412 23.458)"><g transform="translate(0)" clip-path="url(#c)"><rect width="18.099" height="19.622" transform="matrix(1, -0.005, 0.005, 1, -0.208, 0)" fill="url(#d)"/></g></g></g></g></svg>