<svg xmlns="http://www.w3.org/2000/svg" xmlns:xlink="http://www.w3.org/1999/xlink" width="48" height="48" viewBox="0 0 48 48">
  <defs>
    <style>
      .cls-1, .cls-4, .cls-5 {
        fill: none;
      }

      .cls-2 {
        opacity: 0.2;
      }

      .cls-3 {
        clip-path: url(#clip-path);
      }

      .cls-4 {
        stroke: #1e50a2;
        stroke-linecap: round;
      }

      .cls-4, .cls-5 {
        stroke-miterlimit: 10;
        stroke-width: 2px;
      }

      .cls-5 {
        stroke: #000;
      }
    </style>
    <clipPath id="clip-path">
      <rect id="rect_687" data-name="rect 687" class="cls-1" width="48" height="48" transform="translate(481.999 145.209)"/>
    </clipPath>
  </defs>
  <g id="subscribe" transform="translate(-481.999 -145.209)">
    <g id="list_1438" data-name="list 1438" class="cls-2">
      <g id="list_1437" data-name="list 1437">
        <g id="list_1436" data-name="list 1436" class="cls-3">
          <rect id="rect_686" data-name="rect 686" class="cls-1" width="47" height="47" transform="translate(482.499 145.709)"/>
          <path id="line_1128" data-name="line 1128" class="cls-1" d="M529,192.209H483v-46h46Zm1-47H482v48h48Z"/>
        </g>
      </g>
    </g>
    <g id="list_1440" data-name="list 1440">
      <g id="list_1439" data-name="list 1439">
        <line id="strike_105" data-name="strike 105" class="cls-4" x2="13.449" transform="translate(499.274 166.671)"/>
        <line id="strike_106" data-name="strike 106" class="cls-4" y2="12.78" transform="translate(505.999 160.281)"/>
      </g>
      <path id="line_1129" data-name="line 1129" class="cls-5" d="M516.9,185.893,506,181.2l-10.9,4.691a1.79,1.79,0,0,1-2.5-1.644V155.036a2.657,2.657,0,0,1,2.657-2.657h21.485a2.656,2.656,0,0,1,2.657,2.657v29.213A1.789,1.789,0,0,1,516.9,185.893Z"/>
    </g>
  </g>
</svg>
