<svg width="49" height="48" viewBox="0 0 49 48" fill="none" xmlns="http://www.w3.org/2000/svg">
<path d="M24.7201 6.34399H24.7191C20.4775 6.34399 17.0391 9.78245 17.0391 14.024V23.249C17.0391 27.4905 20.4775 30.929 24.7191 30.929H24.7201C28.9616 30.929 32.4001 27.4905 32.4001 23.249V14.024C32.4001 9.78245 28.9616 6.34399 24.7201 6.34399Z" stroke="#333333" stroke-width="2" stroke-linecap="round" stroke-linejoin="round"/>
<path d="M37.0271 17.8609V23.8049C37.0271 27.069 35.7304 30.1993 33.4224 32.5073C31.1144 34.8153 27.9841 36.1119 24.7201 36.1119V36.1119C21.456 36.1119 18.3257 34.8153 16.0177 32.5073C13.7097 30.1993 12.4131 27.069 12.4131 23.8049V17.856" stroke="#333333" stroke-width="2" stroke-linecap="round" stroke-linejoin="round"/>
<path d="M24.7197 37.22V41.426" stroke="#333333" stroke-width="2" stroke-linecap="round" stroke-linejoin="round"/>
<path d="M16.876 41.657H32.564" stroke="#333333" stroke-width="2" stroke-linecap="round" stroke-linejoin="round"/>
</svg>
