<svg width="36" height="36" viewBox="0 0 36 36" fill="none" xmlns="http://www.w3.org/2000/svg">
<path d="M31.3165 25.4093H26.2776L25.1402 29.3986L20.9777 25.4093H4.66522C4.40762 25.409 4.16068 25.3065 3.97864 25.1242C3.7966 24.942 3.69434 24.6949 3.69434 24.4373V7.57244C3.69434 7.31495 3.79664 7.06801 3.97871 6.88594C4.16078 6.70386 4.40773 6.60156 4.66522 6.60156H31.3165C31.5741 6.60156 31.8211 6.70383 32.0034 6.88587C32.1856 7.06791 32.2882 7.31485 32.2885 7.57244V24.4373C32.2885 24.6951 32.1861 24.9423 32.0038 25.1246C31.8215 25.3069 31.5743 25.4093 31.3165 25.4093V25.4093Z" stroke="#666666" stroke-width="2" stroke-linecap="round" stroke-linejoin="round"/>
<path d="M10.4766 12.9961H27.1536" stroke="#666666" stroke-width="2" stroke-linecap="round" stroke-linejoin="round"/>
<path d="M10.4766 18.2622H20.7579" stroke="#666666" stroke-width="2" stroke-linecap="round" stroke-linejoin="round"/>
</svg>
