<svg width="48" height="48" viewBox="0 0 48 48" fill="none" xmlns="http://www.w3.org/2000/svg">
<path d="M7.13867 19.0669C8.08393 15.2272 10.307 11.823 13.4426 9.4136C16.5782 7.00417 20.4399 5.73273 24.3936 5.8081C28.3473 5.88347 32.1578 7.30118 35.1993 9.82836C38.2408 12.3555 40.3324 15.842 41.1307 19.715" stroke="black" stroke-width="2" stroke-linecap="round" stroke-linejoin="round"/>
<path d="M12.7324 18.538L6.30743 21.238L3.60742 14.813" stroke="black" stroke-width="2" stroke-linecap="round" stroke-linejoin="round"/>
<path d="M40.865 28.938C39.9201 32.7781 37.6972 36.1825 34.5616 38.5921C31.4259 41.0018 27.564 42.2732 23.6102 42.1978C19.6563 42.1223 15.8457 40.7043 12.8043 38.1767C9.76294 35.6491 7.67168 32.1623 6.87402 28.2891" stroke="black" stroke-width="2" stroke-linecap="round" stroke-linejoin="round"/>
<path d="M35.2666 29.4619L41.6916 26.762L44.3916 33.187" stroke="black" stroke-width="2" stroke-linecap="round" stroke-linejoin="round"/>
</svg>
