<svg width="59" height="59" viewBox="0 0 59 59" fill="none" xmlns="http://www.w3.org/2000/svg">
<path d="M56.4491 26.3615L56.4291 26.3415C55.8397 25.752 55.4384 25.001 55.2759 24.1835C55.1134 23.3659 55.197 22.5185 55.5161 21.7485L55.5271 21.7225C55.9545 20.6896 55.9542 19.5292 55.5263 18.4965C55.0984 17.4638 54.2778 16.6433 53.2451 16.2155L53.2291 16.2085C52.4584 15.8888 51.7999 15.3475 51.337 14.6532C50.8742 13.9589 50.6278 13.1429 50.6291 12.3085V12.2525C50.6291 11.6987 50.52 11.1504 50.308 10.6388C50.096 10.1272 49.7852 9.66237 49.3935 9.27094C49.0018 8.8795 48.5368 8.56913 48.025 8.35748C47.5133 8.14584 46.9649 8.03708 46.4111 8.03748H46.3791C45.5447 8.03866 44.7287 7.79224 44.0345 7.32941C43.3402 6.86657 42.7989 6.20816 42.4791 5.4375L42.4691 5.4115C42.2574 4.8997 41.9468 4.43466 41.5552 4.04297C41.1636 3.65128 40.6987 3.34057 40.187 3.12872C39.6752 2.91687 39.1267 2.80799 38.5729 2.80829C38.019 2.80859 37.4706 2.91809 36.9591 3.13049L36.9201 3.14746C36.1491 3.46785 35.3004 3.55213 34.4814 3.38959C33.6625 3.22705 32.9103 2.82505 32.3201 2.2345V2.2345C31.9288 1.84312 31.4642 1.53262 30.9529 1.3208C30.4416 1.10898 29.8935 1 29.3401 1C28.7866 1 28.2386 1.10898 27.7273 1.3208C27.216 1.53262 26.7514 1.84312 26.3601 2.2345L26.3401 2.25348C25.7509 2.84326 24.9999 3.24495 24.1823 3.40765C23.3647 3.57036 22.5172 3.48677 21.7471 3.16748L21.7211 3.15649C20.6882 2.72907 19.5278 2.72936 18.4951 3.15729C17.4624 3.58522 16.642 4.40575 16.2141 5.43848L16.2051 5.46149C15.8854 6.23065 15.3453 6.88802 14.6527 7.35071C13.9601 7.81339 13.146 8.06067 12.3131 8.06146H12.2771C11.1599 8.06173 10.0886 8.50571 9.29871 9.29578C8.50883 10.0858 8.06512 11.1573 8.06512 12.2745V12.3045C8.06486 13.1376 7.81773 13.9518 7.35498 14.6445C6.89223 15.3372 6.23457 15.8773 5.46509 16.1965L5.43311 16.2104C4.4023 16.6385 3.58339 17.458 3.15613 18.4891C2.72886 19.5203 2.72816 20.6788 3.15411 21.7104L3.16711 21.7415C3.48565 22.5115 3.56881 23.3587 3.40613 24.176C3.24345 24.9933 2.84223 25.7441 2.25311 26.3335L2.23413 26.3525C1.44394 27.1429 1 28.2148 1 29.3325C1 30.4501 1.44394 31.5221 2.23413 32.3125L2.25311 32.3325C2.84278 32.9217 3.24434 33.6727 3.40704 34.4903C3.56974 35.3079 3.48627 36.1554 3.16711 36.9255L3.15613 36.9515C2.72869 37.9841 2.72881 39.1442 3.15656 40.1768C3.5843 41.2093 4.40465 42.0296 5.43713 42.4575L5.4541 42.4645C6.22405 42.7836 6.88204 43.3239 7.34485 44.017C7.80766 44.7102 8.05447 45.525 8.05408 46.3585V46.4145C8.05408 46.9683 8.16325 47.5167 8.37524 48.0283C8.58724 48.54 8.89797 49.0048 9.28967 49.3964C9.68138 49.7879 10.1463 50.0984 10.6581 50.3101C11.1698 50.5219 11.7183 50.6308 12.2721 50.6305H12.3041C13.1386 50.6289 13.9547 50.8752 14.649 51.3381C15.3434 51.801 15.8846 52.4596 16.2041 53.2305L16.2141 53.2565C16.4259 53.7683 16.7366 54.2334 17.1282 54.6251C17.5199 55.0168 17.985 55.3275 18.4968 55.5393C19.0087 55.7512 19.5572 55.86 20.1111 55.8597C20.6651 55.8594 21.2135 55.7499 21.7251 55.5375L21.7641 55.5215C22.535 55.201 23.3837 55.1165 24.2026 55.2789C25.0216 55.4412 25.7738 55.8431 26.3641 56.4335C26.7553 56.825 27.2199 57.1356 27.7313 57.3475C28.2426 57.5594 28.7906 57.6684 29.3441 57.6684C29.8976 57.6684 30.4456 57.5594 30.957 57.3475C31.4683 57.1356 31.9328 56.825 32.3241 56.4335L32.3441 56.4145C32.9336 55.8252 33.6845 55.4238 34.502 55.2611C35.3195 55.0984 36.167 55.1817 36.9371 55.5005L36.9631 55.5115C37.4745 55.7234 38.0226 55.8325 38.5761 55.8326C39.1296 55.8326 39.6777 55.7237 40.1891 55.5118C40.7005 55.3 41.1652 54.9895 41.5566 54.5981C41.948 54.2066 42.2584 53.7419 42.4701 53.2305L42.4791 53.2075C42.7983 52.438 43.3384 51.7804 44.0311 51.3176C44.7238 50.8549 45.538 50.6077 46.3711 50.6075H46.4071C47.524 50.6067 48.595 50.1625 49.3846 49.3725C50.1742 48.5825 50.6178 47.5114 50.6181 46.3945V46.3645C50.6184 45.5314 50.8655 44.7171 51.3282 44.0244C51.791 43.3317 52.4486 42.7917 53.2181 42.4725L53.2511 42.4585C54.2817 42.0303 55.1004 41.2107 55.5275 40.1796C55.9545 39.1485 55.9551 37.99 55.5291 36.9585L55.5161 36.9265C55.1975 36.1566 55.1143 35.3095 55.277 34.4924C55.4397 33.6752 55.841 32.9246 56.4301 32.3354L56.4491 32.3155C57.2375 31.5253 57.6802 30.4547 57.6802 29.3385C57.6802 28.2223 57.2375 27.1516 56.4491 26.3615V26.3615Z" stroke="#E5975A" stroke-width="2"/>
<path d="M30.0059 53.0034C43.2607 53.0034 54.0059 42.2583 54.0059 29.0034C54.0059 15.7486 43.2607 5.00342 30.0059 5.00342C16.751 5.00342 6.00586 15.7486 6.00586 29.0034C6.00586 42.2583 16.751 53.0034 30.0059 53.0034Z" fill="#E5975A"/>
<g filter="url(#filter0_d)">
<path d="M31.0379 22.3674C29.1659 22.3674 27.7379 23.1834 26.7539 24.8154C25.7939 26.4234 25.3139 28.5594 25.3139 31.2234C25.3139 34.0074 25.7819 36.1554 26.7179 37.6674C27.6779 39.1794 29.1539 39.9354 31.1459 39.9354C32.1059 39.9354 33.1739 39.7554 34.3499 39.3954C35.5499 39.0354 36.4139 39.4914 36.9419 40.7634C37.4939 42.0354 36.6299 43.1874 34.3499 44.2194C34.1579 44.3154 32.8859 44.3634 30.5339 44.3634C28.1819 44.3634 26.2139 43.8354 24.6299 42.7794C23.0459 41.6994 21.8579 40.1754 21.0659 38.2074C20.2739 36.2154 19.8779 33.8754 19.8779 31.1874C19.8779 28.5954 20.2979 26.3034 21.1379 24.3114C22.0019 22.3194 23.2499 20.7594 24.8819 19.6314C26.5379 18.5034 28.5419 17.9394 30.8939 17.9394C33.2699 17.9394 34.5299 17.9754 34.6739 18.0474C36.8819 19.1994 37.6739 20.4594 37.0499 21.8274C36.4259 23.1954 34.9619 23.4114 32.6579 22.4754C32.4419 22.4034 31.9019 22.3674 31.0379 22.3674Z" fill="white"/>
</g>
<defs>
<filter id="filter0_d" x="13.8779" y="14.9395" width="29.3782" height="38.424" filterUnits="userSpaceOnUse" color-interpolation-filters="sRGB">
<feFlood flood-opacity="0" result="BackgroundImageFix"/>
<feColorMatrix in="SourceAlpha" type="matrix" values="0 0 0 0 0 0 0 0 0 0 0 0 0 0 0 0 0 0 127 0" result="hardAlpha"/>
<feOffset dy="3"/>
<feGaussianBlur stdDeviation="3"/>
<feColorMatrix type="matrix" values="0 0 0 0 0 0 0 0 0 0 0 0 0 0 0 0 0 0 0.161 0"/>
<feBlend mode="normal" in2="BackgroundImageFix" result="effect1_dropShadow"/>
<feBlend mode="normal" in="SourceGraphic" in2="effect1_dropShadow" result="shape"/>
</filter>
</defs>
</svg>
