<svg width="48" height="48" viewBox="0 0 48 48" fill="none" xmlns="http://www.w3.org/2000/svg">
<path d="M18.5471 39.8549H30.7041C31.0754 39.8549 31.4315 39.7074 31.6941 39.4449C31.9566 39.1823 32.1041 38.8262 32.1041 38.4549V30.4049C32.1043 30.2956 32.1332 30.1883 32.1881 30.0938C32.243 29.9993 32.3218 29.921 32.4167 29.8667C32.5115 29.8124 32.619 29.7841 32.7283 29.7847C32.8376 29.7853 32.9448 29.8147 33.0391 29.8699L41.4071 34.7919C41.6193 34.9173 41.8609 34.9844 42.1074 34.9864C42.3538 34.9885 42.5964 34.9255 42.8107 34.8037C43.025 34.682 43.2034 34.5058 43.3278 34.293C43.4521 34.0802 43.5181 33.8384 43.5191 33.5919L43.6711 14.6919C43.6736 14.4458 43.6111 14.2033 43.49 13.989C43.3689 13.7747 43.1934 13.5961 42.9812 13.4713C42.769 13.3464 42.5277 13.2797 42.2816 13.2779C42.0354 13.2761 41.7931 13.3392 41.5791 13.4609L32.8041 18.4329C32.7328 18.4736 32.6521 18.4948 32.57 18.4945C32.4879 18.4941 32.4073 18.4721 32.3364 18.4308C32.2655 18.3895 32.2067 18.3302 32.166 18.259C32.1252 18.1877 32.1039 18.107 32.1041 18.0249V9.83092C32.1041 9.45961 31.9566 9.10351 31.6941 8.84096C31.4315 8.57841 31.0754 8.43091 30.7041 8.43091H6.85211C6.48081 8.43091 6.12473 8.57841 5.86218 8.84096C5.59963 9.10351 5.45215 9.45961 5.45215 9.83092V26.8549" stroke="#333333" stroke-width="2" stroke-linecap="round" stroke-linejoin="round"/>
<path d="M5.22266 34.1948H16.6817" stroke="#333333" stroke-width="2" stroke-linecap="round" stroke-linejoin="round"/>
<path d="M10.9512 39.9249V28.4658" stroke="#333333" stroke-width="2" stroke-linecap="round" stroke-linejoin="round"/>
</svg>
