<svg width="77" height="78" viewBox="0 0 77 78" fill="none" xmlns="http://www.w3.org/2000/svg">
<path d="M38.409 1.79688C45.8078 1.79687 53.0404 3.99087 59.1923 8.10143C65.3442 12.212 70.139 18.0545 72.9704 24.8901C75.8018 31.7257 76.5426 39.2474 75.0992 46.504C73.6558 53.7606 70.0929 60.4263 64.8612 65.658C59.6294 70.8898 52.9638 74.4526 45.7071 75.8961C38.4505 77.3395 30.9288 76.5987 24.0932 73.7673C17.2576 70.9359 11.4151 66.1411 7.30455 59.9892C3.194 53.8373 1 46.6047 1 39.2059C1 29.2844 4.94129 19.7693 11.9568 12.7537C18.9724 5.73817 28.4875 1.79688 38.409 1.79688V1.79688Z" stroke="#1E50A2" stroke-width="2" stroke-dasharray="3 6"/>
<path d="M38.4089 17.4385V60.9715" stroke="#1E50A2" stroke-width="2" stroke-miterlimit="10" stroke-linecap="round"/>
<path d="M60.1761 39.2051H16.6431" stroke="#1E50A2" stroke-width="2" stroke-miterlimit="10" stroke-linecap="round"/>
</svg>
