<svg width="214" height="140" viewBox="0 0 214 140" fill="none" xmlns="http://www.w3.org/2000/svg">
<g filter="url(#filter0_d)">
<rect x="4" y="4" width="206" height="132" rx="20" fill="#FDEDED"/>
<g filter="url(#filter1_d)">
<path d="M38.884 83.028L41.096 74.852L43.756 75.3L42.3 80.48H46.444C46.948 78.5013 47.3773 76.3173 47.732 73.928L50.448 74.264C50.1307 76.3733 49.72 78.4453 49.216 80.48H62.04V83.028H48.544C48.488 83.2333 48.1987 84.1107 47.676 85.66H58.876V87.9C58.148 90.2147 56.7573 92.2867 54.704 94.116C56.8133 95.292 59.38 96.384 62.404 97.392L61.032 99.912C57.6907 98.6987 54.844 97.3453 52.492 95.852C50.2893 97.3827 47.5733 98.7827 44.344 100.052L42.944 97.532C45.7253 96.524 48.124 95.4133 50.14 94.2C48.3107 92.744 46.948 91.1853 46.052 89.524C44.036 93.6493 41.4973 96.9533 38.436 99.436L37.064 96.972C40.928 93.556 43.812 88.908 45.716 83.028H38.884ZM47.984 88.068C48.9173 89.7293 50.3733 91.26 52.352 92.66C54.1253 91.2227 55.404 89.692 56.188 88.068H47.984ZM55.152 73.956C57.056 75.3933 58.68 76.868 60.024 78.38L58.12 80.284C56.9813 78.8093 55.3947 77.288 53.36 75.72L55.152 73.956ZM78.532 81.488H81.108V84.708H88.836V94.228C88.836 96.1693 87.856 97.14 85.896 97.14H83.348L82.704 94.676L85.056 94.76C85.8773 94.76 86.288 94.3867 86.288 93.64V87.172H81.108V99.884H78.532V87.172H73.296V97.364H70.748V86.948C69.4973 88.236 68.1253 89.44 66.632 90.56L64.924 88.32C68.2467 85.8747 70.888 83.112 72.848 80.032H65.876V77.428H74.304C74.864 76.252 75.34 75.076 75.732 73.9L78.42 74.236C78.028 75.4307 77.6267 76.4947 77.216 77.428H90.404V80.032H75.956C74.9853 81.712 73.9213 83.2707 72.764 84.708H78.532V81.488ZM107.064 78.772C107.717 79.9107 108.361 81.2173 108.996 82.692H111.376C112.011 81.4973 112.608 80.1813 113.168 78.744H103.144V76.336H108.968C108.669 75.5707 108.361 74.88 108.044 74.264L110.816 73.816C111.096 74.5627 111.376 75.4027 111.656 76.336H117.788V78.744H114.148L115.744 79.304C115.259 80.536 114.736 81.6653 114.176 82.692H118.292V85.24H102.5V82.692H106.448C105.888 81.516 105.375 80.5453 104.908 79.78L107.064 78.772ZM94.128 99.632L93.54 97.056C94.3427 97.1493 95.052 97.196 95.668 97.196C96.3213 97.196 96.648 96.86 96.648 96.188V90.168C95.64 90.56 94.604 90.924 93.54 91.26L92.868 88.6C94.156 88.32 95.416 87.956 96.648 87.508V81.74H93.456V79.192H96.648V74.124H99.336V79.192H101.436V81.74H99.336V86.388C100.045 86.052 100.745 85.688 101.436 85.296V87.984C100.969 88.2267 100.269 88.572 99.336 89.02V96.86C99.336 98.708 98.4213 99.632 96.592 99.632H94.128ZM110.228 85.968C109.985 86.6027 109.733 87.2187 109.472 87.816H118.74V90.392H115.828C115.417 92.24 114.643 93.8267 113.504 95.152C115.203 95.9173 116.901 96.776 118.6 97.728L117.144 99.856C115.632 98.904 113.784 97.924 111.6 96.916C109.696 98.204 106.803 99.24 102.92 100.024L101.884 97.616C104.852 97.0933 107.148 96.4307 108.772 95.628C106.7 94.732 104.973 94.0133 103.592 93.472C104.189 92.576 104.815 91.5493 105.468 90.392H102.136V87.816H106.784C107.195 86.8827 107.493 86.1733 107.68 85.688L110.228 85.968ZM108.128 90.392C107.811 90.952 107.381 91.624 106.84 92.408C108.203 92.8747 109.621 93.4347 111.096 94.088C112.141 93.0613 112.888 91.8293 113.336 90.392H108.128ZM121.68 79.92H129.38C129.511 77.8667 129.585 75.8973 129.604 74.012H132.264C132.264 75.8227 132.199 77.792 132.068 79.92H146.516V82.524H137.416V90.728C139.264 88.936 140.813 86.8173 142.064 84.372L144.444 85.632C142.596 89.16 140.253 92.0347 137.416 94.256V95.74C137.416 96.5613 137.771 96.972 138.48 96.972H142.512C142.923 96.972 143.24 96.776 143.464 96.384C143.688 95.9547 143.856 94.6387 143.968 92.436L146.488 93.276C146.264 96.3 145.881 98.0827 145.34 98.624C144.836 99.184 144.052 99.464 142.988 99.464H137.668C135.727 99.464 134.756 98.4093 134.756 96.3V96.076C133.505 96.7853 132.115 97.4387 130.584 98.036L129.072 95.74C131.219 94.9933 133.113 94.0507 134.756 92.912V82.524H131.816C131.592 84.4467 131.284 86.22 130.892 87.844C129.772 92.716 127.131 96.7387 122.968 99.912L121.092 97.644C124.732 94.844 127.112 91.4093 128.232 87.34C128.624 85.7907 128.923 84.1853 129.128 82.524H121.68V79.92ZM138.312 73.956C140.272 75.1693 141.961 76.42 143.38 77.708L141.476 79.612C140.356 78.436 138.704 77.1293 136.52 75.692L138.312 73.956Z" fill="#1E50A2"/>
</g>
<path d="M36.1626 48.2019C36.152 50.9455 37.5265 53.7293 40.6356 56.0242C42.1098 57.1281 44.0153 58.0746 46.2398 58.808C48.4643 59.5413 50.9627 60.0465 53.5876 60.294C56.1793 60.534 58.8501 60.4572 61.3684 60.0702C63.649 59.7 65.7003 59.0467 67.3272 58.1727C70.4426 56.5232 72.3642 53.8907 70.5572 51.694C70.1348 51.1815 69.5045 50.7173 68.7052 50.3304C67.9059 49.9434 66.9548 49.6418 65.9106 49.4444C64.0512 49.126 61.7598 49.3725 60.9603 50.3571C60.2749 51.2013 60.9905 52.2163 62.1348 52.8759C62.7988 53.2682 63.6838 53.5536 64.6768 53.6957C65.6697 53.8377 66.7256 53.8299 67.7096 53.6733C70.1572 53.3302 72.0873 52.3426 73.2428 51.2517C74.5861 49.9835 74.8664 48.4839 74.5841 47.0771C73.9618 43.9765 70.7251 41.2168 68.3423 38.3943C66.1275 35.7708 64.2857 32.7353 65.9903 29.9077C66.6927 28.7824 67.967 27.7653 69.691 26.954C71.415 26.1427 73.5308 25.5643 75.8356 25.2744C80.2322 24.6905 85.376 25.1057 88.4986 26.8482C89.9711 27.6699 91.0461 28.7388 91.0609 29.8553C91.0809 30.3773 90.8198 30.8926 90.3045 31.348C89.7891 31.8035 89.0381 32.1827 88.1287 32.4467C84.3239 33.5012 79.186 32.4172 77.592 30.4887C76.6165 29.3083 76.8013 27.9514 77.7216 26.7776C78.7064 25.5677 80.3675 24.522 82.5099 23.7634C84.7353 22.9445 87.3348 22.4002 89.9613 21.9837C92.6935 21.5421 95.5093 21.2393 98.3652 21.08C103.812 20.7923 109.497 21.2423 113.766 23.0504C117.522 24.6407 119.589 26.9949 120.64 29.3393C121.861 32.0597 121.677 34.8381 121.689 37.6061C121.701 40.5559 121.851 43.7756 124.72 46.4421C126.976 48.5389 130.963 50.3744 135.723 50.9229C137.92 51.1811 140.225 51.0872 142.307 50.6546C142.996 50.5115 143.297 51.0683 142.616 51.2097C138.043 52.1599 133.01 51.4144 129.234 49.9681C127.243 49.2026 125.553 48.2626 124.247 47.1947C122.842 45.9918 121.875 44.6759 121.39 43.307C119.188 37.7448 122.592 31.7396 117.463 26.453C116.455 25.3779 115.034 24.4102 113.28 23.6037C111.263 22.7155 108.817 22.0999 106.18 21.8162C100.613 21.191 94.5738 21.7841 89.276 22.7036C84.1977 23.585 79.122 25.2384 78.2127 28.0685C77.838 29.2349 78.3692 30.5387 80.1663 31.3663C80.9245 31.7099 81.8271 31.966 82.8091 32.1162C83.791 32.2664 84.828 32.3069 85.8453 32.2348C86.8405 32.1635 87.7639 31.9369 88.4816 31.588C89.1993 31.2391 89.6739 30.786 89.8366 30.2945C90.1986 29.1987 89.1175 28.0582 87.6768 27.2553C84.5132 25.4923 79.2255 25.2452 74.934 26.0187C72.8146 26.3971 70.9269 27.039 69.4521 27.8826C67.7446 28.9175 66.732 30.1907 66.5555 31.5244C66.0532 34.5428 68.6884 37.446 71.1639 40.1225C73.6859 42.8491 76.3957 45.8435 75.7558 48.9189C75.5338 50.2801 74.488 51.5764 72.755 52.6385C71.1656 53.5797 68.908 54.2868 66.3934 54.3646C65.3734 54.3933 64.3549 54.2968 63.4283 54.0836C62.5018 53.8704 61.6959 53.5471 61.0823 53.1425C59.8927 52.3897 59.1983 51.3618 59.7038 50.4124C59.9859 49.9287 60.5755 49.5029 61.385 49.1984C62.1945 48.8939 63.1808 48.7269 64.1973 48.7222C66.4208 48.7029 68.5374 49.363 69.9616 50.166C73.1807 51.9812 72.8685 54.6677 70.781 56.7211C69.6751 57.8159 68.061 58.7652 66.0711 59.4912C64.0812 60.2173 61.7722 60.6994 59.3335 60.8979C54.1509 61.2963 48.7543 60.5043 44.6025 58.9463C40.18 57.2867 37.3091 54.7979 35.9622 52.1586C35.3108 50.8646 34.9877 49.5354 35.0004 48.2019C35.0056 48.1272 35.0691 48.0565 35.1775 48.0047C35.2859 47.9528 35.4308 47.9238 35.5815 47.9238C35.7322 47.9238 35.8771 47.9528 35.9855 48.0047C36.0939 48.0565 36.1574 48.1272 36.1626 48.2019H36.1626Z" fill="#1E50A2"/>
<path d="M172.161 33.8147C172.8 31.7756 174.255 29.9055 176.267 29.2161C178.28 28.5268 181.226 29.5769 182.739 31.0845C185.506 33.8424 185.591 37.2185 183.69 40.2124C183.312 40.1924 182.007 40.1776 181.624 40.1633L181.083 38.3587V40.1455C178.096 40.0532 174.986 40.111 171.874 40.1707C171.595 38.051 171.521 35.8537 172.161 33.8147Z" fill="#2F2E41"/>
<path d="M158.852 66.1498C158.735 65.9002 158.675 65.6281 158.674 65.3525C158.674 65.0769 158.734 64.8046 158.85 64.5546C158.966 64.3047 159.135 64.0833 159.346 63.906C159.557 63.7287 159.805 63.5998 160.071 63.5285L168.111 48.3574L171.357 50.8623L162.433 64.9873C162.523 65.4424 162.443 65.9148 162.208 66.315C161.974 66.7152 161.6 67.0154 161.159 67.1587C160.718 67.302 160.239 67.2784 159.814 67.0925C159.389 66.9065 159.047 66.5711 158.852 66.1498Z" fill="#FFB6B6"/>
<path d="M169.418 114.434H166.693L165.397 103.924L169.418 103.924L169.418 114.434Z" fill="#FFB6B6"/>
<path d="M186.211 114.434H183.486L182.189 103.924L186.211 103.924L186.211 114.434Z" fill="#FFB6B6"/>
<path d="M180.342 54.6576L180.959 56.2628L180.836 57.868L168.982 56.3863L169.352 55.0281L170.711 53.4229L180.342 54.6576Z" fill="#FFB6B6"/>
<path d="M176.522 40.2122C178.905 40.2122 180.837 38.28 180.837 35.8966C180.837 33.5132 178.905 31.5811 176.522 31.5811C174.138 31.5811 172.206 33.5132 172.206 35.8966C172.206 38.28 174.138 40.2122 176.522 40.2122Z" fill="#FFB7B7"/>
<path d="M171.946 43.2979L174.415 41.8162L179.354 41.3223L183.72 42.3101L183.676 50.3361L180.907 57.3794L169.3 55.8977L168.859 53.4133C168.859 53.4133 165.648 49.1013 169.106 46.6318L171.946 43.2979Z" fill="#1E50A2"/>
<path d="M180.96 57.2508V59.9936C180.96 59.9936 184.17 64.1655 182.441 67.3759L187.394 110.101H182.208L173.551 74.0437L169.861 109.36H165.416L164.675 70.094C164.675 70.094 165.154 59.9673 167.871 58.2386L169.12 56.0176L180.96 57.2508Z" fill="#2F2E41"/>
<path d="M173.557 30.2776C174.386 29.7721 175.336 29.4986 176.307 29.4858C177.278 29.473 178.235 29.7213 179.077 30.2048C179.919 30.6883 180.616 31.3892 181.095 32.2342C181.573 33.0792 181.816 34.0372 181.798 35.0082C179.386 35.1192 176.851 35.148 174.282 35.153L173.675 33.6668L173.317 35.1541C172.534 35.1541 171.749 35.153 170.963 35.151C170.931 34.1828 171.154 33.2231 171.609 32.3679C172.064 31.5127 172.736 30.7919 173.557 30.2776Z" fill="#2F2E41"/>
<path d="M145.27 53.2073L143.341 52.4497C143.214 52.4001 143.099 52.326 143 52.2316C142.902 52.1372 142.823 52.0243 142.769 51.8995C142.714 51.7746 142.685 51.6403 142.682 51.5041C142.68 51.3678 142.704 51.2325 142.754 51.1057C142.804 50.9788 142.878 50.8631 142.973 50.7651C143.067 50.667 143.18 50.5886 143.305 50.5342C143.43 50.4799 143.564 50.4507 143.701 50.4484C143.837 50.4461 143.972 50.4706 144.099 50.5207L146.028 51.2783C146.283 51.3791 146.488 51.5771 146.598 51.8289C146.707 52.0806 146.712 52.3655 146.612 52.621C146.512 52.8765 146.314 53.0817 146.062 53.1916C145.811 53.3016 145.526 53.3072 145.27 53.2073Z" fill="#1E50A2"/>
<path d="M188.224 65.9961L150.105 51.0239C149.862 50.9288 149.6 50.8934 149.341 50.9208C149.082 50.9482 148.833 51.0375 148.616 51.1813L147.09 50.5821C146.916 50.5136 146.73 50.4802 146.543 50.4836C146.356 50.4871 146.171 50.5274 146 50.6022C145.828 50.677 145.673 50.7848 145.543 50.9196C145.413 51.0543 145.311 51.2133 145.243 51.3875L144.769 52.5926C144.701 52.7668 144.668 52.9527 144.671 53.1399C144.674 53.327 144.715 53.5116 144.79 53.6831C144.864 53.8547 144.972 54.0099 145.107 54.1397C145.242 54.2696 145.401 54.3717 145.575 54.4401L146.844 54.9384C146.757 55.3171 146.81 55.7141 146.991 56.0576C147.172 56.4011 147.471 56.6684 147.832 56.8109L185.951 71.7831C186.353 71.9411 186.802 71.9328 187.198 71.7601C187.594 71.5875 187.905 71.2645 188.063 70.8623L189.145 68.1081C189.303 67.7059 189.295 67.2574 189.122 66.8613C188.949 66.4653 188.626 66.154 188.224 65.9961Z" fill="#3F3D56"/>
<path d="M197.24 77.3302L182.909 71.7014L185.94 63.9854L200.271 69.6141C200.903 69.8635 201.411 70.3536 201.683 70.9769C201.955 71.6003 201.968 72.3059 201.72 72.9391L200.565 75.8804C200.316 76.513 199.826 77.0209 199.202 77.2927C198.579 77.5645 197.873 77.578 197.24 77.3302Z" fill="#2F2E41"/>
<path d="M199.501 75.6204L192.519 72.878C192.166 72.739 191.883 72.4656 191.731 72.1178C191.58 71.7701 191.572 71.3764 191.711 71.0232L191.927 70.4719C192.066 70.1189 192.34 69.8355 192.687 69.6839C193.035 69.5322 193.429 69.5247 193.782 69.663L200.764 72.4053C201.117 72.5444 201.4 72.8178 201.552 73.1656C201.703 73.5133 201.711 73.907 201.572 74.2602L201.356 74.8115C201.217 75.1645 200.944 75.4479 200.596 75.5995C200.248 75.7512 199.855 75.7587 199.501 75.6204Z" fill="#1E50A2"/>
<path d="M176.854 62.9211C176.954 62.9434 177.052 62.9736 177.146 63.0113L184.68 57.8255L184.508 55.6102L187.817 54.9131L188.503 58.8051C188.559 59.1195 188.511 59.4434 188.367 59.7282C188.222 60.013 187.989 60.2433 187.703 60.3845L178.371 64.987C178.335 65.3785 178.182 65.75 177.93 66.052C177.678 66.354 177.341 66.5723 176.962 66.6777C176.583 66.7831 176.181 66.7708 175.81 66.6422C175.438 66.5137 175.115 66.2751 174.882 65.9582C174.649 65.6413 174.519 65.261 174.508 64.8681C174.496 64.4751 174.605 64.088 174.819 63.7583C175.033 63.4286 175.343 63.1719 175.706 63.0223C176.07 62.8728 176.47 62.8375 176.854 62.9211Z" fill="#FFB6B6"/>
<path d="M183.937 57.9938L188.135 60.4633C189.123 59.9694 188.932 56.7663 188.329 56.5787L187.874 45.8915C187.627 40.9524 183.72 42.3107 183.72 42.3107L181.948 42.6811L183.182 47.8671L184.524 56.8152C184.341 56.953 184.194 57.1311 184.092 57.3356C183.99 57.5401 183.937 57.7654 183.937 57.9938Z" fill="#1E50A2"/>
<path d="M172.042 43.2305C172.042 43.2305 168.652 43.2839 167.592 45.1086C166.744 46.5693 165.158 52.3961 164.559 54.6636C164.231 54.6543 163.908 54.7546 163.643 54.9487C163.378 55.1428 163.185 55.4197 163.094 55.7356L167.638 57.4994C168.626 57.0055 168.352 56.3209 168.101 55.9668L169.794 53.4282L171.769 52.4404L172.589 43.6986L172.042 43.2305Z" fill="#1E50A2"/>
<path d="M170.636 119.608H168.703L168.358 117.782L167.474 119.608H162.346C162.1 119.608 161.861 119.529 161.663 119.384C161.465 119.238 161.318 119.033 161.245 118.798C161.172 118.564 161.176 118.312 161.256 118.079C161.336 117.847 161.489 117.646 161.691 117.507L165.786 114.678V112.833L170.093 113.09L170.636 119.608Z" fill="#2F2E41"/>
<path d="M187.676 119.608H185.743L185.398 117.782L184.514 119.608H179.386C179.14 119.608 178.901 119.529 178.703 119.384C178.505 119.238 178.358 119.033 178.285 118.798C178.212 118.564 178.216 118.312 178.296 118.079C178.376 117.847 178.529 117.646 178.731 117.507L182.826 114.678V112.833L187.133 113.09L187.676 119.608Z" fill="#2F2E41"/>
</g>
<defs>
<filter id="filter0_d" x="0" y="0" width="214" height="140" filterUnits="userSpaceOnUse" color-interpolation-filters="sRGB">
<feFlood flood-opacity="0" result="BackgroundImageFix"/>
<feColorMatrix in="SourceAlpha" type="matrix" values="0 0 0 0 0 0 0 0 0 0 0 0 0 0 0 0 0 0 127 0" result="hardAlpha"/>
<feOffset/>
<feGaussianBlur stdDeviation="2"/>
<feComposite in2="hardAlpha" operator="out"/>
<feColorMatrix type="matrix" values="0 0 0 0 0 0 0 0 0 0 0 0 0 0 0 0 0 0 0.25 0"/>
<feBlend mode="normal" in2="BackgroundImageFix" result="effect1_dropShadow"/>
<feBlend mode="normal" in="SourceGraphic" in2="effect1_dropShadow" result="shape"/>
</filter>
<filter id="filter1_d" x="33.064" y="73.8164" width="117.452" height="34.236" filterUnits="userSpaceOnUse" color-interpolation-filters="sRGB">
<feFlood flood-opacity="0" result="BackgroundImageFix"/>
<feColorMatrix in="SourceAlpha" type="matrix" values="0 0 0 0 0 0 0 0 0 0 0 0 0 0 0 0 0 0 127 0" result="hardAlpha"/>
<feOffset dy="4"/>
<feGaussianBlur stdDeviation="2"/>
<feComposite in2="hardAlpha" operator="out"/>
<feColorMatrix type="matrix" values="0 0 0 0 0 0 0 0 0 0 0 0 0 0 0 0 0 0 0.25 0"/>
<feBlend mode="normal" in2="BackgroundImageFix" result="effect1_dropShadow"/>
<feBlend mode="normal" in="SourceGraphic" in2="effect1_dropShadow" result="shape"/>
</filter>
</defs>
</svg>
