<svg width="214" height="140" viewBox="0 0 214 140" fill="none" xmlns="http://www.w3.org/2000/svg">
<g filter="url(#filter0_d)">
<rect x="4" y="4" width="206" height="132" rx="20" fill="#FFFBEF"/>
<path d="M188.157 119.025C187.552 119.838 186.802 120.533 185.944 121.076C185.761 121.191 185.574 121.3 185.384 121.4H180.9C180.954 121.293 181.006 121.184 181.057 121.076C182.447 118.152 182.883 114.867 182.303 111.683C181.724 108.499 180.158 105.576 177.826 103.325C180.536 104.16 183.04 105.786 184.679 108.093C185.475 109.217 186.041 110.485 186.345 111.827C186.615 109.144 186.185 106.436 185.095 103.968C187.296 105.752 189.009 108.195 189.662 110.946C190.315 113.697 189.841 116.751 188.157 119.025Z" fill="#F0F0F0"/>
<path d="M189.973 121.537H148V121.195H190.036L189.973 121.537Z" fill="#3F3D56"/>
<path d="M178.991 119.266H176.995L176.045 111.589H178.992L178.991 119.266Z" fill="#FEB8B8"/>
<path d="M179.501 121.195H173.063V121.114C173.063 120.452 173.327 119.816 173.797 119.348C174.267 118.879 174.904 118.616 175.568 118.616H179.501L179.501 121.195Z" fill="#2F2E41"/>
<path d="M163.824 119.2L161.895 118.686L162.967 111.025L165.813 111.784L163.824 119.2Z" fill="#FEB8B8"/>
<path d="M163.816 121.195L157.597 119.538L157.618 119.459C157.789 118.819 158.209 118.273 158.784 117.942C159.36 117.61 160.044 117.52 160.686 117.691L164.484 118.704L163.816 121.195Z" fill="#2F2E41"/>
<path d="M180.14 76.2432L181.812 78.1801L179.65 117.539H175.03L172.701 87.2535L165.479 118.351L160.676 117.177L165.043 77.6788L180.14 76.2432Z" fill="#2F2E41"/>
<path d="M166.159 50.8329L170.759 48.5322L177.833 48.6563L183.92 51.7614L180.457 69.005L181.953 77.9955C176.17 79.4655 170.116 79.5152 164.31 78.1403L164.264 78.1293C164.264 78.1293 167.703 65.9673 166.239 62.2556L166.159 50.8329Z" fill="#E6E6E6"/>
<path d="M179.467 41.6425C179.462 40.2667 178.909 38.949 177.931 37.9789C176.952 37.0087 175.627 36.4652 174.247 36.4678C172.867 36.4703 171.544 37.0187 170.569 37.9925C169.594 38.9662 169.046 40.2859 169.046 41.6618C169.046 43.0376 169.594 44.3573 170.569 45.3311C171.544 46.3048 172.867 46.8532 174.247 46.8557C175.627 46.8583 176.952 46.3148 177.931 45.3446C178.909 44.3745 179.462 43.0568 179.467 41.681V41.6425Z" fill="#FEB8B8"/>
<path d="M165.525 63.4045C165.624 63.658 165.777 63.8867 165.974 64.0747C166.172 64.2626 166.408 64.4051 166.666 64.4922C166.925 64.5793 167.199 64.6089 167.471 64.5787C167.742 64.5486 168.003 64.4596 168.236 64.318L177.576 69.2399L177.879 66.9718L168.803 61.6367C168.538 61.2624 168.145 60.9978 167.698 60.8932C167.25 60.7886 166.78 60.8512 166.376 61.0691C165.972 61.2869 165.662 61.645 165.505 62.0755C165.348 62.5059 165.355 62.9788 165.524 63.4045H165.525Z" fill="#FEB8B8"/>
<path d="M177.971 63.7974C177.819 64.0231 177.619 64.2129 177.385 64.3533C177.151 64.4936 176.89 64.5812 176.618 64.6098C176.347 64.6384 176.072 64.6073 175.814 64.5188C175.556 64.4303 175.321 64.2864 175.125 64.0974L164.93 66.8629L165.019 63.9833L175.16 61.3577C175.5 61.0501 175.942 60.8777 176.402 60.8731C176.861 60.8686 177.306 61.0322 177.653 61.333C177.999 61.6337 178.223 62.0508 178.282 62.5051C178.34 62.9593 178.23 63.4193 177.971 63.7977L177.971 63.7974Z" fill="#FEB8B8"/>
<path d="M181.933 51.8859L183.921 51.7617C183.921 51.7617 186.248 54.8227 184.957 58.1444C184.957 58.1444 185.181 70.0765 180.026 69.5862C174.872 69.096 173.244 69.0961 173.244 69.0961L174.791 64.7941L178.252 63.7288C178.252 63.7288 177.185 59.0381 179.204 57.0864L181.933 51.8859Z" fill="#E6E6E6"/>
<path d="M167.58 51.7814L167.299 50.3458C167.299 50.3458 163.156 50.2484 162.337 56.5068C162.337 56.5068 158.612 65.8727 162.263 67.0787C165.915 68.2847 169.932 67.0787 169.932 67.0787L169.629 62.9481L165.612 62.131C165.612 62.131 167.687 59.4542 166.557 57.1322L167.58 51.7814Z" fill="#E6E6E6"/>
<path d="M176.061 44.193C175.678 44.0431 175.253 44.0509 174.848 43.9769C173.4 43.7109 172.283 42.2388 172.42 40.7772C172.455 40.5878 172.458 40.394 172.43 40.2036C172.33 39.7866 171.865 39.5627 171.437 39.5128C171.01 39.4628 170.569 39.5267 170.153 39.4159C169.512 39.2446 169.032 38.6612 168.87 38.0192C168.731 37.3664 168.804 36.6866 169.076 36.0771L169.276 36.4914C169.483 36.272 169.624 35.9991 169.684 35.7036C169.858 35.7129 170.027 35.7667 170.174 35.8597C170.321 35.9528 170.442 36.0819 170.525 36.2349C170.783 36.3495 170.751 35.7631 171.008 35.647C171.123 35.6192 171.245 35.635 171.35 35.6914C171.915 35.8806 172.515 35.5968 173.076 35.3934C174.046 35.0423 175.086 34.9238 176.111 35.0476C176.793 35.1304 177.48 35.3312 178.01 35.765C178.429 36.1433 178.77 36.5996 179.013 37.1082C179.667 38.3272 180.16 39.6719 180.146 41.0547C180.133 42.1866 179.784 43.2893 179.142 44.2235C178.808 44.7082 177.729 46.3896 177.012 46.2045C176.11 45.9725 177.14 44.6148 176.061 44.193Z" fill="#2F2E41"/>
<path d="M101.474 39.371C101.474 43.926 99.8449 47.8151 96.7453 50.7092C94.5458 52.7639 91.1579 55.6438 91.1579 58.6888V61.208H80.8421V58.6888C80.8421 55.612 77.4409 52.7262 75.2547 50.7092C72.2252 47.9164 70.5264 43.7634 70.5264 39.371V39.2778C70.5397 35.2685 72.1823 31.4285 75.0931 28.6025C78.0038 25.7764 81.9442 24.1957 86.0477 24.2081C90.1511 24.2204 94.0815 25.8248 96.9743 28.6683C99.8672 31.5118 101.486 35.3616 101.474 39.371Z" fill="#1E50A2"/>
<path d="M91.0399 61.208C90.9461 61.208 90.8561 61.1714 90.7898 61.1063C90.7235 61.0411 90.6862 60.9527 90.6862 60.8606V58.3853C90.6862 55.4755 93.6077 52.7592 95.741 50.7758C95.9178 50.6111 96.0901 50.4515 96.2554 50.2958C99.2063 47.5247 100.766 43.7598 100.766 39.408C100.766 31.2747 94.28 24.9035 86 24.9035H85.9583C82.0616 24.9078 78.3252 26.4275 75.5659 29.1302C72.8067 31.8329 71.2491 35.4988 71.2338 39.3263V39.4074C71.2338 43.6692 72.8772 47.6372 75.7429 50.2944C75.888 50.4291 76.0388 50.5677 76.1936 50.71C78.3544 52.6972 81.3137 55.4186 81.3137 58.3854V60.8606C81.3137 60.9527 81.2764 61.0411 81.2101 61.1063C81.1438 61.1714 81.0538 61.208 80.96 61.208C80.8662 61.208 80.7762 61.1714 80.7099 61.1063C80.6435 61.0411 80.6063 60.9527 80.6063 60.8606V58.3853C80.6063 55.7199 77.7767 53.1175 75.7101 51.2166C75.5546 51.0737 75.4036 50.9345 75.2572 50.7991C72.2508 48.0113 70.5264 43.8593 70.5264 39.4075V39.3241C70.5499 30.9806 77.4689 24.2082 85.9572 24.2082H86.0009C90.0833 24.1874 94.0069 25.7603 96.9086 28.5811C99.8102 31.4018 101.452 35.2393 101.474 39.2492C101.474 39.3022 101.474 39.3551 101.474 39.408C101.474 43.9541 99.8381 47.8927 96.7443 50.798C96.5782 50.954 96.4052 51.1149 96.2272 51.2804C94.1875 53.177 91.3933 55.7745 91.3933 58.3852V60.8606C91.3933 60.9527 91.356 61.0411 91.2897 61.1063C91.2233 61.1714 91.1334 61.208 91.0395 61.208H91.0399Z" fill="#3F3D56"/>
<path d="M90.4664 64.2503H81.5336C81.3258 64.2503 81.1265 64.1669 80.9795 64.0184C80.8326 63.87 80.75 63.6686 80.75 63.4587C80.75 63.2487 80.8326 63.0473 80.9795 62.8989C81.1265 62.7504 81.3258 62.667 81.5336 62.667H90.4664C90.6742 62.667 90.8735 62.7504 91.0205 62.8989C91.1674 63.0473 91.25 63.2487 91.25 63.4587C91.25 63.6686 91.1674 63.87 91.0205 64.0184C90.8735 64.1669 90.6742 64.2503 90.4664 64.2503Z" fill="#1E50A2"/>
<path d="M89.4254 65.8333L82.5373 65.8317L82.516 65.7359C82.4957 65.5598 82.4948 65.3762 82.5136 65.1993C82.5323 65.0223 82.5701 64.8567 82.6241 64.7151C82.6788 64.5698 82.7486 64.4524 82.8282 64.3718C82.9077 64.2913 82.995 64.2496 83.0834 64.25H88.9166C89.005 64.2496 89.0923 64.2913 89.1719 64.3719C89.2514 64.4524 89.3212 64.5698 89.3759 64.7152C89.4295 64.8549 89.4671 65.0182 89.4861 65.1928C89.505 65.3675 89.5048 65.5489 89.4854 65.7233L89.4745 65.8204L89.4254 65.8333Z" fill="#3F3D56"/>
<path d="M69.7536 26.2499C69.6336 26.25 69.5177 26.2062 69.4275 26.1265L65.1661 22.3743C65.0685 22.2866 65.0092 22.1635 65.001 22.0319C64.9928 21.9003 65.0364 21.7707 65.1224 21.6714C65.2084 21.572 65.3297 21.5109 65.4601 21.5013C65.5905 21.4917 65.7194 21.5344 65.8188 21.6202L70.0801 25.3723C70.1562 25.4394 70.2102 25.5282 70.2349 25.627C70.2596 25.7258 70.2539 25.8299 70.2184 25.9253C70.1829 26.0207 70.1193 26.1029 70.0363 26.161C69.9532 26.219 69.8546 26.25 69.7536 26.25V26.2499Z" fill="#E4E4E4"/>
<path d="M102.246 26.25C102.145 26.25 102.047 26.219 101.964 26.161C101.881 26.103 101.817 26.0207 101.782 25.9253C101.746 25.8299 101.74 25.7259 101.765 25.6271C101.79 25.5283 101.844 25.4394 101.92 25.3724L106.181 21.6202C106.281 21.5344 106.409 21.4917 106.54 21.5013C106.67 21.5109 106.792 21.572 106.878 21.6714C106.964 21.7707 107.007 21.9003 106.999 22.0319C106.991 22.1635 106.931 22.2865 106.834 22.3742L102.572 26.1262C102.482 26.206 102.366 26.25 102.246 26.25Z" fill="#E4E4E4"/>
<path d="M85.9917 47.4875L83.769 59.4997H82.5001L84.7578 47.3031C84.785 47.156 84.8761 47.0246 85.011 46.9379C85.1459 46.8512 85.3136 46.8162 85.4772 46.8406C85.6409 46.8651 85.787 46.9469 85.8835 47.0683C85.9799 47.1896 86.0188 47.3404 85.9917 47.4875Z" fill="#E6E6E6"/>
<path d="M91.25 59.4997H89.3467L86.0127 47.4875C85.9719 47.3404 86.0303 47.1896 86.175 47.0683C86.3197 46.9469 86.5389 46.8651 86.7843 46.8406C87.0297 46.8162 87.2813 46.8512 87.4837 46.9379C87.6861 47.0246 87.8227 47.156 87.8635 47.3031L91.25 59.4997Z" fill="#E6E6E6"/>
<path d="M80.75 47.6247C80.75 47.4147 80.8351 47.2133 80.9866 47.0649C81.1381 46.9164 81.3435 46.833 81.5578 46.833H90.4422C90.6565 46.833 90.8619 46.9164 91.0134 47.0649C91.1649 47.2133 91.25 47.4147 91.25 47.6247C91.25 47.8346 91.1649 48.036 91.0134 48.1845C90.8619 48.3329 90.6565 48.4163 90.4422 48.4163H81.5578C81.3435 48.4163 81.1381 48.3329 80.9866 48.1845C80.8351 48.036 80.75 47.8346 80.75 47.6247Z" fill="#E6E6E6"/>
<path d="M86.875 21.5C86.6429 21.5 86.4204 21.4476 86.2563 21.3543C86.0922 21.261 86 21.1345 86 21.0026V12.4974C86 12.3655 86.0922 12.239 86.2563 12.1457C86.4204 12.0524 86.6429 12 86.875 12C87.1071 12 87.3296 12.0524 87.4937 12.1457C87.6578 12.239 87.75 12.3655 87.75 12.4974V21.0026C87.75 21.1345 87.6578 21.261 87.4937 21.3543C87.3296 21.4476 87.1071 21.5 86.875 21.5Z" fill="#E4E4E4"/>
<g filter="url(#filter1_d)">
<path d="M30.884 92.028L33.096 83.852L35.756 84.3L34.3 89.48H38.444C38.948 87.5013 39.3773 85.3173 39.732 82.928L42.448 83.264C42.1307 85.3733 41.72 87.4453 41.216 89.48H54.04V92.028H40.544C40.488 92.2333 40.1987 93.1107 39.676 94.66H50.876V96.9C50.148 99.2147 48.7573 101.287 46.704 103.116C48.8133 104.292 51.38 105.384 54.404 106.392L53.032 108.912C49.6907 107.699 46.844 106.345 44.492 104.852C42.2893 106.383 39.5733 107.783 36.344 109.052L34.944 106.532C37.7253 105.524 40.124 104.413 42.14 103.2C40.3107 101.744 38.948 100.185 38.052 98.524C36.036 102.649 33.4973 105.953 30.436 108.436L29.064 105.972C32.928 102.556 35.812 97.908 37.716 92.028H30.884ZM39.984 97.068C40.9173 98.7293 42.3733 100.26 44.352 101.66C46.1253 100.223 47.404 98.692 48.188 97.068H39.984ZM47.152 82.956C49.056 84.3933 50.68 85.868 52.024 87.38L50.12 89.284C48.9813 87.8093 47.3947 86.288 45.36 84.72L47.152 82.956ZM70.532 90.488H73.108V93.708H80.836V103.228C80.836 105.169 79.856 106.14 77.896 106.14H75.348L74.704 103.676L77.056 103.76C77.8773 103.76 78.288 103.387 78.288 102.64V96.172H73.108V108.884H70.532V96.172H65.296V106.364H62.748V95.948C61.4973 97.236 60.1253 98.44 58.632 99.56L56.924 97.32C60.2467 94.8747 62.888 92.112 64.848 89.032H57.876V86.428H66.304C66.864 85.252 67.34 84.076 67.732 82.9L70.42 83.236C70.028 84.4307 69.6267 85.4947 69.216 86.428H82.404V89.032H67.956C66.9853 90.712 65.9213 92.2707 64.764 93.708H70.532V90.488ZM87.78 83.32C89.6653 84.776 91.2613 86.2507 92.568 87.744L90.692 89.592C89.5533 88.1733 87.976 86.6613 85.96 85.056L87.78 83.32ZM103.88 108.408C102.928 108.408 101.257 108.389 98.868 108.352C97.0947 108.333 95.6013 108.175 94.388 107.876C93.2867 107.54 92.3067 106.887 91.448 105.916C91.056 105.449 90.7013 105.216 90.384 105.216C89.8053 105.216 88.7973 106.476 87.36 108.996L85.4 107.176C86.8 104.899 88.06 103.48 89.18 102.92V94.996H85.428V92.532H91.672V103.116C91.8213 103.228 91.9613 103.368 92.092 103.536C92.7453 104.283 93.4173 104.843 94.108 105.216C94.9853 105.627 96.2267 105.86 97.832 105.916C99.96 105.953 101.845 105.972 103.488 105.972C104.403 105.972 105.793 105.953 107.66 105.916C108.892 105.897 109.975 105.851 110.908 105.776L110.264 108.408H103.88ZM99.036 86.092H93.632V83.88H109.004V85.756C107.436 87.1 105.7 88.2947 103.796 89.34L103.964 89.48H109.592V101.912C109.592 103.573 108.677 104.404 106.848 104.404H104.692L104.132 102.192L106.12 102.304C106.755 102.304 107.072 101.996 107.072 101.38V99.952H103.04V104.544H100.604V99.952H96.656V104.6H94.136V89.48H100.576C99.512 88.7707 98.476 88.1453 97.468 87.604L99.036 86.092ZM102.172 88.08C103.311 87.52 104.403 86.8573 105.448 86.092H99.176C100.501 86.932 101.5 87.5947 102.172 88.08ZM96.656 95.836V97.796H100.604V95.836H96.656ZM103.04 95.836V97.796H107.072V95.836H103.04ZM107.072 93.652V91.692H103.04V93.652H107.072ZM100.604 93.652V91.692H96.656V93.652H100.604ZM137.844 85.784V107.624H135.268V106.028H130.368V107.652H127.792V85.784H137.844ZM130.368 103.536H135.268V88.276H130.368V103.536ZM117.74 89.116C117.124 90.4787 116.405 91.7667 115.584 92.98L113.26 91.496C115.071 88.8453 116.349 86.0173 117.096 83.012L119.728 83.572C119.523 84.356 119.205 85.3547 118.776 86.568H126.42V89.116H122.612C122.556 91.0947 122.453 92.7093 122.304 93.96H126.672V96.508H121.94L121.576 98.3C123.219 99.9613 124.964 101.893 126.812 104.096L125.188 106.56C123.452 104.096 121.996 102.164 120.82 100.764C119.625 103.732 117.619 106.215 114.8 108.212L113.064 106.084C115.976 103.937 117.889 101.296 118.804 98.16L119.168 96.508H113.652V93.96H119.56C119.709 92.7093 119.812 91.0947 119.868 89.116H117.74Z" fill="#1E50A2"/>
</g>
</g>
<defs>
<filter id="filter0_d" x="0" y="0" width="214" height="140" filterUnits="userSpaceOnUse" color-interpolation-filters="sRGB">
<feFlood flood-opacity="0" result="BackgroundImageFix"/>
<feColorMatrix in="SourceAlpha" type="matrix" values="0 0 0 0 0 0 0 0 0 0 0 0 0 0 0 0 0 0 127 0" result="hardAlpha"/>
<feOffset/>
<feGaussianBlur stdDeviation="2"/>
<feComposite in2="hardAlpha" operator="out"/>
<feColorMatrix type="matrix" values="0 0 0 0 0 0 0 0 0 0 0 0 0 0 0 0 0 0 0.25 0"/>
<feBlend mode="normal" in2="BackgroundImageFix" result="effect1_dropShadow"/>
<feBlend mode="normal" in="SourceGraphic" in2="effect1_dropShadow" result="shape"/>
</filter>
<filter id="filter1_d" x="25.064" y="82.9004" width="116.78" height="34.152" filterUnits="userSpaceOnUse" color-interpolation-filters="sRGB">
<feFlood flood-opacity="0" result="BackgroundImageFix"/>
<feColorMatrix in="SourceAlpha" type="matrix" values="0 0 0 0 0 0 0 0 0 0 0 0 0 0 0 0 0 0 127 0" result="hardAlpha"/>
<feOffset dy="4"/>
<feGaussianBlur stdDeviation="2"/>
<feComposite in2="hardAlpha" operator="out"/>
<feColorMatrix type="matrix" values="0 0 0 0 0 0 0 0 0 0 0 0 0 0 0 0 0 0 0.25 0"/>
<feBlend mode="normal" in2="BackgroundImageFix" result="effect1_dropShadow"/>
<feBlend mode="normal" in="SourceGraphic" in2="effect1_dropShadow" result="shape"/>
</filter>
</defs>
</svg>
