<svg width="214" height="140" viewBox="0 0 214 140" fill="none" xmlns="http://www.w3.org/2000/svg">
<g filter="url(#filter0_d)">
<rect x="4" y="4" width="206" height="132" rx="20" fill="#EAF5EF"/>
<g filter="url(#filter1_d)">
<path d="M28.884 65.028L31.096 56.852L33.756 57.3L32.3 62.48H36.444C36.948 60.5013 37.3773 58.3173 37.732 55.928L40.448 56.264C40.1307 58.3733 39.72 60.4453 39.216 62.48H52.04V65.028H38.544C38.488 65.2333 38.1987 66.1107 37.676 67.66H48.876V69.9C48.148 72.2147 46.7573 74.2867 44.704 76.116C46.8133 77.292 49.38 78.384 52.404 79.392L51.032 81.912C47.6907 80.6987 44.844 79.3453 42.492 77.852C40.2893 79.3827 37.5733 80.7827 34.344 82.052L32.944 79.532C35.7253 78.524 38.124 77.4133 40.14 76.2C38.3107 74.744 36.948 73.1853 36.052 71.524C34.036 75.6493 31.4973 78.9533 28.436 81.436L27.064 78.972C30.928 75.556 33.812 70.908 35.716 65.028H28.884ZM37.984 70.068C38.9173 71.7293 40.3733 73.26 42.352 74.66C44.1253 73.2227 45.404 71.692 46.188 70.068H37.984ZM45.152 55.956C47.056 57.3933 48.68 58.868 50.024 60.38L48.12 62.284C46.9813 60.8093 45.3947 59.288 43.36 57.72L45.152 55.956ZM68.532 63.488H71.108V66.708H78.836V76.228C78.836 78.1693 77.856 79.14 75.896 79.14H73.348L72.704 76.676L75.056 76.76C75.8773 76.76 76.288 76.3867 76.288 75.64V69.172H71.108V81.884H68.532V69.172H63.296V79.364H60.748V68.948C59.4973 70.236 58.1253 71.44 56.632 72.56L54.924 70.32C58.2467 67.8747 60.888 65.112 62.848 62.032H55.876V59.428H64.304C64.864 58.252 65.34 57.076 65.732 55.9L68.42 56.236C68.028 57.4307 67.6267 58.4947 67.216 59.428H80.404V62.032H65.956C64.9853 63.712 63.9213 65.2707 62.764 66.708H68.532V63.488ZM93.928 69.536C92.696 70.0587 91.464 70.5627 90.232 71.048V78.916C90.232 80.7267 89.2987 81.632 87.432 81.632H84.548L83.932 79.056C84.9213 79.1493 85.78 79.196 86.508 79.196C87.1987 79.196 87.544 78.8693 87.544 78.216V72C86.1813 72.4293 84.856 72.8213 83.568 73.176L82.924 70.656C84.5853 70.3013 86.1253 69.9 87.544 69.452V63.516H83.372V60.968H87.544V56.152H90.232V60.968H93.648V63.516H90.232V68.5C91.464 68.0147 92.696 67.4827 93.928 66.904V69.536ZM94.348 58H108.572V60.576H104.26V78.692C104.26 80.6147 103.355 81.576 101.544 81.576H96.868L96.28 79C97.96 79.0933 99.4067 79.14 100.62 79.14C101.255 79.14 101.572 78.7667 101.572 78.02V60.576H94.348V58ZM121.284 56.124H123.972V59.316H132.876V61.864H123.972V65.476H136.516V68.052H123.972V70.516C127.239 71.9907 130.524 73.652 133.828 75.5L132.316 77.768C129.087 75.7893 126.305 74.2493 123.972 73.148V81.856H121.284V68.052H111.456V65.476H121.284V56.124Z" fill="#1E50A2"/>
</g>
<path d="M190.348 45.338L185.253 50.0274L189.302 43.2351C186.112 37.4515 180.894 32.4531 180.894 32.4531C180.894 32.4531 170.071 42.821 170.071 50.9708C170.071 59.1206 174.917 61.9662 180.894 61.9662C186.872 61.9662 191.718 59.1206 191.718 50.9708C191.718 49.1568 191.181 47.233 190.348 45.338Z" fill="#F2F2F2"/>
<path d="M183.943 50.2801V50.6818C183.919 55.3513 183.131 58.9946 181.586 61.56C181.564 61.5977 181.54 61.6335 181.518 61.6713L181.345 61.5659L181.18 61.4625C182.895 58.6923 183.501 54.7765 183.523 50.7037C183.525 50.5724 183.527 50.4392 183.525 50.3059C183.519 48.5817 183.414 46.8377 183.245 45.1433C183.233 45.012 183.219 44.8788 183.205 44.7456C182.97 42.5103 182.632 40.3744 182.286 38.5189C182.262 38.3877 182.236 38.2564 182.21 38.1272C181.612 34.989 181.001 32.7159 180.862 32.2128C180.846 32.1511 180.836 32.1173 180.834 32.1094L181.023 32.0557L181.025 32.0537L181.216 32C181.218 32.008 181.252 32.1213 181.307 32.3321C181.52 33.1196 182.073 35.2575 182.616 38.0775C182.64 38.2047 182.666 38.336 182.69 38.4672C182.972 39.9727 183.249 41.6551 183.468 43.4211C183.523 43.8646 183.573 44.3021 183.617 44.7336C183.633 44.8669 183.647 45.0001 183.659 45.1314C183.842 46.963 183.936 48.6792 183.943 50.2801Z" fill="white"/>
<path d="M179.093 128.89L137.607 113.98C136.624 113.626 135.822 112.896 135.376 111.951C134.931 111.006 134.879 109.923 135.231 108.939L156.858 48.7888C157.212 47.8061 157.942 47.0041 158.888 46.5589C159.833 46.1136 160.916 46.0614 161.9 46.4137L203.386 61.323C204.369 61.6775 205.171 62.4073 205.616 63.3523C206.062 64.2974 206.114 65.3804 205.762 66.3639L184.135 126.515C183.78 127.497 183.05 128.299 182.105 128.744C181.16 129.19 180.077 129.242 179.093 128.89Z" fill="#3F3D56"/>
<path d="M180.017 126.551L138.384 111.589C138.081 111.48 137.834 111.255 137.697 110.963C137.56 110.672 137.543 110.338 137.652 110.035L159.422 49.486C159.531 49.1831 159.756 48.9359 160.048 48.7986C160.339 48.6613 160.673 48.6452 160.976 48.7538L202.608 63.7157C202.911 63.825 203.159 64.0499 203.296 64.3412C203.433 64.6326 203.449 64.9664 203.341 65.2696L181.571 125.819C181.461 126.122 181.236 126.369 180.945 126.506C180.654 126.643 180.32 126.659 180.017 126.551Z" fill="white"/>
<path d="M178.637 94.9682C183.116 90.4909 183.116 83.2317 178.637 78.7544C174.159 74.2771 166.898 74.2771 162.42 78.7544C157.942 83.2317 157.942 90.4909 162.42 94.9682C166.898 99.4455 174.159 99.4455 178.637 94.9682Z" fill="#1E50A2"/>
<path d="M167.763 91.7332L166.116 85.0766L166.973 84.865L168.336 90.3761L177.965 84.7471L178.41 85.5082L167.763 91.7332Z" fill="white"/>
<path d="M203.049 129.272H151.136C151.1 129.272 151.065 129.258 151.04 129.233C151.014 129.207 151 129.172 151 129.136C151 129.1 151.014 129.065 151.04 129.04C151.065 129.014 151.1 129 151.136 129H203.049C203.085 129 203.12 129.014 203.146 129.04C203.171 129.065 203.186 129.1 203.186 129.136C203.186 129.172 203.171 129.207 203.146 129.233C203.12 129.258 203.085 129.272 203.049 129.272Z" fill="#CACACA"/>
<path d="M185.488 105.761C185.603 105.665 185.695 105.544 185.759 105.408C185.822 105.272 185.855 105.124 185.855 104.974C185.855 104.824 185.822 104.675 185.759 104.539C185.695 104.403 185.603 104.283 185.487 104.187L184.724 90.752L182.545 91.2444L183.986 104.365C183.836 104.569 183.767 104.821 183.792 105.073C183.816 105.324 183.931 105.558 184.116 105.73C184.302 105.902 184.543 106 184.796 106.006C185.049 106.012 185.295 105.925 185.488 105.761H185.488Z" fill="#9F616A"/>
<path d="M194.333 107.51C194.214 107.418 194.118 107.301 194.049 107.168C193.981 107.034 193.942 106.887 193.937 106.737C193.932 106.587 193.959 106.438 194.018 106.299C194.076 106.161 194.165 106.037 194.276 105.937L194.553 92.4834L196.748 92.8966L195.783 106.061C195.94 106.26 196.018 106.509 196.003 106.761C195.988 107.013 195.881 107.251 195.702 107.43C195.523 107.608 195.285 107.715 195.033 107.73C194.78 107.745 194.531 107.667 194.333 107.51Z" fill="#9F616A"/>
<path d="M195.495 127.505L197.204 127.505L197.692 123.519L195.495 123.519L195.495 127.505Z" fill="#9F616A"/>
<path d="M195.058 126.947L198.424 126.947H198.425C198.993 126.947 199.539 127.173 199.941 127.575C200.344 127.978 200.57 128.523 200.57 129.092V129.162L195.058 129.162L195.058 126.947Z" fill="#2F2E41"/>
<path d="M184.829 127.505L186.538 127.505L187.026 120.914H184.829L184.829 127.505Z" fill="#9F616A"/>
<path d="M184.393 126.947L187.759 126.947H187.759C188.328 126.947 188.874 127.173 189.276 127.575C189.678 127.978 189.904 128.523 189.904 129.092V129.162L184.393 129.162L184.393 126.947Z" fill="#2F2E41"/>
<path d="M191.714 84.9556C193.259 84.9556 194.511 83.704 194.511 82.16C194.511 80.6159 193.259 79.3643 191.714 79.3643C190.17 79.3643 188.918 80.6159 188.918 82.16C188.918 83.704 190.17 84.9556 191.714 84.9556Z" fill="#9F616A"/>
<path d="M195.268 88.6113C195.268 88.6113 196.511 88.7149 196.615 89.3361C196.718 89.9574 196.615 91.8212 196.615 91.8212C196.615 91.8212 197.443 94.3063 196.615 94.9275C195.786 95.5488 193.611 95.6523 193.611 95.6523L195.268 88.6113Z" fill="#E4E4E4"/>
<path d="M184.704 102.692L183.565 104.556C183.565 104.556 183.979 112.736 184.083 112.943C184.165 113.065 184.202 113.211 184.186 113.357V114.496L184.497 124.437C184.497 124.437 183.669 124.851 184.704 125.161C185.74 125.472 187.086 125.576 187.293 124.54C187.501 123.505 187.51 114.879 187.501 114.6L187.604 114.186L189.261 108.077L193.093 116.567L195.372 126.093C195.372 126.093 198.82 126.491 198.199 125.145C197.577 123.799 196.097 113.772 196.097 113.772C196.097 113.772 195.786 112.736 195.786 112.529C195.786 112.322 195.682 112.218 195.682 112.011C195.682 111.804 195.579 111.183 195.579 111.183L194.854 104.66L184.704 102.692Z" fill="#2F2E41"/>
<path d="M185.74 86.8515C185.74 86.8515 184.497 86.748 184.186 87.7834C183.876 88.8188 181.286 92.7535 181.804 93.1677C182.322 93.5819 186.258 95.0315 186.361 94.928C186.465 94.8244 185.74 86.8515 185.74 86.8515Z" fill="#E4E4E4"/>
<path d="M194.971 80.3783C194.853 79.9416 194.688 79.505 194.351 79.2033C194.009 78.8998 193.571 78.7274 193.115 78.7166C192.594 78.4146 192.009 78.2395 191.407 78.2054C190.806 78.1713 190.205 78.2792 189.653 78.5203C189.593 78.3997 189.497 78.3013 189.377 78.2393C189.344 78.5268 189.311 78.8143 189.277 79.1018C189.149 79.0052 189.021 78.9086 188.892 78.8119C188.886 78.9821 188.879 79.1522 188.873 79.3224C188.755 79.2212 188.638 79.12 188.52 79.0188C188.495 79.6214 188.996 80.1432 189.564 80.3486C190.131 80.554 190.753 80.5161 191.355 80.4877C191.653 80.4736 191.992 80.4787 192.193 80.6987C192.403 80.9291 192.363 81.2824 192.369 81.5944C192.376 82.0331 192.826 81.8182 193.052 82.1944C193.15 82.3191 193.21 82.4683 193.228 82.6254C193.206 82.768 193.155 82.9043 193.076 83.0251C192.91 83.3686 192.579 84.4373 192.737 84.7848C193.029 84.6213 193.321 84.4578 193.614 84.2942C193.614 84.2942 195.539 82.4925 194.971 80.3783Z" fill="#2F2E41"/>
<path d="M194.44 94.6167C194.44 94.6167 196.511 89.3359 196.407 88.9217C196.304 88.5076 193.72 86.8081 193.72 86.8081C193.621 86.7959 193.528 86.7841 193.434 86.7722C193.448 86.7357 193.457 86.6976 193.462 86.6588L193.506 86.2534C193.52 86.1276 193.483 86.0015 193.404 85.9028C193.325 85.804 193.21 85.7408 193.084 85.727L189.8 85.3671C189.674 85.3533 189.548 85.3901 189.449 85.4693C189.351 85.5485 189.287 85.6637 189.274 85.7895L189.235 86.1401C189.062 86.0972 189.054 86.0802 189.054 86.0802C189.054 86.0802 186.154 86.5402 185.429 86.7473C184.704 86.9544 185.326 94.8238 185.326 94.8238C185.326 94.8238 184.808 102.072 184.497 102.279C184.186 102.486 184.497 102.382 184.186 103.211C184.145 103.32 184.718 102.71 184.963 102.848C186.579 103.759 193.132 105.889 194.75 105.799C195.268 100.401 194.232 98.6549 194.232 98.6549L194.44 94.6167Z" fill="#E4E4E4"/>
</g>
<defs>
<filter id="filter0_d" x="0" y="0" width="214" height="140" filterUnits="userSpaceOnUse" color-interpolation-filters="sRGB">
<feFlood flood-opacity="0" result="BackgroundImageFix"/>
<feColorMatrix in="SourceAlpha" type="matrix" values="0 0 0 0 0 0 0 0 0 0 0 0 0 0 0 0 0 0 127 0" result="hardAlpha"/>
<feOffset/>
<feGaussianBlur stdDeviation="2"/>
<feComposite in2="hardAlpha" operator="out"/>
<feColorMatrix type="matrix" values="0 0 0 0 0 0 0 0 0 0 0 0 0 0 0 0 0 0 0.25 0"/>
<feBlend mode="normal" in2="BackgroundImageFix" result="effect1_dropShadow"/>
<feBlend mode="normal" in="SourceGraphic" in2="effect1_dropShadow" result="shape"/>
</filter>
<filter id="filter1_d" x="23.064" y="55.9004" width="117.452" height="34.152" filterUnits="userSpaceOnUse" color-interpolation-filters="sRGB">
<feFlood flood-opacity="0" result="BackgroundImageFix"/>
<feColorMatrix in="SourceAlpha" type="matrix" values="0 0 0 0 0 0 0 0 0 0 0 0 0 0 0 0 0 0 127 0" result="hardAlpha"/>
<feOffset dy="4"/>
<feGaussianBlur stdDeviation="2"/>
<feComposite in2="hardAlpha" operator="out"/>
<feColorMatrix type="matrix" values="0 0 0 0 0 0 0 0 0 0 0 0 0 0 0 0 0 0 0.25 0"/>
<feBlend mode="normal" in2="BackgroundImageFix" result="effect1_dropShadow"/>
<feBlend mode="normal" in="SourceGraphic" in2="effect1_dropShadow" result="shape"/>
</filter>
</defs>
</svg>
