<svg width="214" height="140" viewBox="0 0 214 140" fill="none" xmlns="http://www.w3.org/2000/svg">
<g filter="url(#filter0_d)">
<rect x="4" y="4" width="206" height="132" rx="20" fill="#EDF6FD"/>
<g filter="url(#filter1_d)">
<path d="M24.884 67.028L27.096 58.852L29.756 59.3L28.3 64.48H32.444C32.948 62.5013 33.3773 60.3173 33.732 57.928L36.448 58.264C36.1307 60.3733 35.72 62.4453 35.216 64.48H48.04V67.028H34.544C34.488 67.2333 34.1987 68.1107 33.676 69.66H44.876V71.9C44.148 74.2147 42.7573 76.2867 40.704 78.116C42.8133 79.292 45.38 80.384 48.404 81.392L47.032 83.912C43.6907 82.6987 40.844 81.3453 38.492 79.852C36.2893 81.3827 33.5733 82.7827 30.344 84.052L28.944 81.532C31.7253 80.524 34.124 79.4133 36.14 78.2C34.3107 76.744 32.948 75.1853 32.052 73.524C30.036 77.6493 27.4973 80.9533 24.436 83.436L23.064 80.972C26.928 77.556 29.812 72.908 31.716 67.028H24.884ZM33.984 72.068C34.9173 73.7293 36.3733 75.26 38.352 76.66C40.1253 75.2227 41.404 73.692 42.188 72.068H33.984ZM41.152 57.956C43.056 59.3933 44.68 60.868 46.024 62.38L44.12 64.284C42.9813 62.8093 41.3947 61.288 39.36 59.72L41.152 57.956ZM64.532 65.488H67.108V68.708H74.836V78.228C74.836 80.1693 73.856 81.14 71.896 81.14H69.348L68.704 78.676L71.056 78.76C71.8773 78.76 72.288 78.3867 72.288 77.64V71.172H67.108V83.884H64.532V71.172H59.296V81.364H56.748V70.948C55.4973 72.236 54.1253 73.44 52.632 74.56L50.924 72.32C54.2467 69.8747 56.888 67.112 58.848 64.032H51.876V61.428H60.304C60.864 60.252 61.34 59.076 61.732 57.9L64.42 58.236C64.028 59.4307 63.6267 60.4947 63.216 61.428H76.404V64.032H61.956C60.9853 65.712 59.9213 67.2707 58.764 68.708H64.532V65.488ZM91.832 64.368C90.5627 67.0373 89.116 69.3613 87.492 71.34L85.588 69.044C87.9213 66.3187 89.9 62.576 91.524 57.816L94.212 58.404C93.876 59.4307 93.4653 60.5507 92.98 61.764H104.516V64.368H95.528V68.372H103.396V70.948H95.528V75.064H103.452V77.612H95.528V83.94H92.84V64.368H91.832ZM82.284 68.988C81.556 69.8653 80.7067 70.808 79.736 71.816L78.84 68.96C81.7147 65.8053 83.8427 62.1187 85.224 57.9L87.744 59.076C87.016 61.204 86.092 63.22 84.972 65.124V83.94H82.284V68.988ZM115.632 58.264H118.292V80.272H121.652V58.264H124.312V80.272H132.488V82.876H107.512V80.272H115.632V58.264ZM131.9 64.144C130.836 68.9413 129.464 73.1507 127.784 76.772L125.404 75.932C126.991 72.628 128.372 68.4747 129.548 63.472L131.9 64.144ZM110.34 63.416C111.74 67.112 113.009 71.396 114.148 76.268L111.712 76.884C110.779 72.5907 109.565 68.344 108.072 64.144L110.34 63.416Z" fill="#1E50A2"/>
</g>
<path d="M144.374 50.3722H169.94C171.174 50.3722 172.371 50.8647 173.334 51.7689C174.298 52.673 174.97 53.9348 175.242 55.3471L188.16 122.584C188.301 123.317 188.303 124.078 188.167 124.812C188.031 125.547 187.759 126.238 187.372 126.836C186.984 127.435 186.49 127.927 185.923 128.277C185.356 128.628 184.731 128.829 184.091 128.866L157.809 130.385C156.402 130.466 155.017 129.944 153.914 128.916C152.81 127.887 152.064 126.423 151.813 124.796L144.485 77.2588L143.099 68.2669L141.053 54.9976C140.966 54.4292 140.986 53.8452 141.113 53.2871C141.24 52.729 141.47 52.2106 141.787 51.7689C142.104 51.3272 142.5 50.973 142.948 50.7316C143.395 50.4901 143.882 50.3674 144.374 50.3722Z" fill="#3F3D56"/>
<path d="M166.574 51.8213H169.558C170.415 51.8213 171.247 52.1652 171.914 52.796C172.582 53.4268 173.045 54.3066 173.228 55.2891L185.627 121.977C185.699 122.361 185.699 122.759 185.627 123.143C185.556 123.527 185.414 123.888 185.213 124.202C185.012 124.516 184.755 124.775 184.46 124.962C184.166 125.149 183.84 125.259 183.506 125.284L157.309 127.299C156.57 127.356 155.839 127.092 155.255 126.556C154.672 126.021 154.277 125.252 154.145 124.397L143.565 55.4682C143.496 55.0221 143.512 54.5638 143.611 54.1256C143.71 53.6874 143.89 53.28 144.137 52.9322C144.385 52.5844 144.695 52.3047 145.045 52.1127C145.395 51.9208 145.777 51.8213 146.163 51.8213H148.994C149.268 51.8213 149.534 51.9273 149.752 52.1229C149.969 52.3185 150.126 52.5927 150.197 52.9032C150.26 53.1773 150.398 53.4194 150.59 53.5921C150.782 53.7648 151.017 53.8583 151.259 53.8583H164.699C165.173 53.8583 165.629 53.6485 165.977 53.2709C166.324 52.8932 166.538 52.3755 166.574 51.8213V51.8213Z" fill="white"/>
<path d="M179.796 73.1991C179.88 73.2627 179.959 73.3339 180.033 73.4121L188.693 70.8216L189.284 68.3701L192.553 68.9328L191.867 73.392C191.811 73.7522 191.658 74.0816 191.429 74.3307C191.201 74.5799 190.909 74.7353 190.599 74.7736L180.488 76.0231C180.323 76.4303 180.056 76.7689 179.724 76.994C179.391 77.2191 179.007 77.3199 178.625 77.2831C178.242 77.2463 177.878 77.0736 177.58 76.788C177.283 76.5023 177.067 76.1173 176.961 75.6841C176.855 75.2509 176.864 74.79 176.986 74.3628C177.109 73.9356 177.339 73.5623 177.647 73.2925C177.955 73.0228 178.325 72.8693 178.709 72.8527C179.093 72.836 179.472 72.9568 179.796 73.1991H179.796Z" fill="#FFB6B6"/>
<path d="M173.616 82.3926C176.701 82.3926 179.202 79.4577 179.202 75.8374C179.202 72.2171 176.701 69.2822 173.616 69.2822C170.531 69.2822 168.03 72.2171 168.03 75.8374C168.03 79.4577 170.531 82.3926 173.616 82.3926Z" fill="#1E50A2"/>
<path d="M177.114 63.256H170.119L165.896 39.0165C165.787 37.7508 165.906 36.4724 166.244 35.2638C166.583 34.0552 167.133 32.9433 167.86 31.9995C168.587 31.0558 169.474 30.3013 170.465 29.7847C171.456 29.2681 172.528 29.0008 173.612 29C174.696 28.9992 175.768 29.2651 176.759 29.7803C177.75 30.2956 178.639 31.0488 179.366 31.9915C180.094 32.9342 180.646 34.0455 180.985 35.2536C181.325 36.4617 181.445 37.7399 181.338 39.0058L177.114 63.256Z" fill="#1E50A2"/>
<path d="M193.138 71.158L190.907 73.4163L187.786 76.5734L186.407 68.297L186.263 67.4363L186.15 66.7533L189.312 60.2891L191.949 60.4667L192.129 60.4794L192.132 60.5259L192.174 60.9594L192.714 66.6645L192.727 66.802L193.138 71.158Z" fill="#3F3D56"/>
<path d="M178.556 127.759L176.347 127.759L175.296 117.76L178.557 117.76L178.556 127.759Z" fill="#FFB6B6"/>
<path d="M179.119 130.272L171.996 130.271V130.166C171.996 129.303 172.288 128.475 172.808 127.865C173.328 127.255 174.033 126.912 174.769 126.912H174.769L179.12 126.912L179.119 130.272Z" fill="#2F2E41"/>
<path d="M201.622 127.97L199.413 127.97L198.362 117.971L201.623 117.971L201.622 127.97Z" fill="#FFB6B6"/>
<path d="M202.185 130.485L195.062 130.484V130.379C195.062 129.516 195.354 128.688 195.874 128.078C196.394 127.468 197.099 127.125 197.834 127.125H197.835L202.185 127.125L202.185 130.485Z" fill="#2F2E41"/>
<path d="M203.388 123.567L197.441 124.625L188.79 90.2671L179.601 124.836L172.934 123.779L181.583 83.602V80.4301L182.755 75.6723L182.632 74.3846L181.78 65.3786L181.41 61.473L181.386 61.2207C181.366 61.0089 181.414 60.796 181.52 60.6234C181.627 60.4507 181.784 60.3307 181.962 60.2867L184.737 59.6016H189.273L191.949 60.4664L192.132 60.5256L192.215 60.5531L192.174 60.9591L191.547 67.1295L191.513 67.4678L190.907 73.4161L190.774 74.7208C196 79.1614 196.18 83.602 196.18 83.602L203.388 123.567Z" fill="#2F2E41"/>
<path d="M186.456 56.9263C188.901 56.9263 190.882 54.601 190.882 51.7327C190.882 48.8643 188.901 46.5391 186.456 46.5391C184.012 46.5391 182.031 48.8643 182.031 51.7327C182.031 54.601 184.012 56.9263 186.456 56.9263Z" fill="#FFB6B6"/>
<path d="M191.105 73.5275L182.35 74.8711L182.513 76.3388L191.269 74.9952L191.105 73.5275Z" fill="#3F3D56"/>
<path d="M170.606 75.3134C170.689 75.377 170.769 75.4482 170.843 75.5264L179.503 72.9359L180.094 70.4844L183.363 71.047L182.677 75.5062C182.621 75.8665 182.468 76.1959 182.239 76.445C182.01 76.6941 181.719 76.8495 181.409 76.8879L171.298 78.1374C171.133 78.5446 170.866 78.8832 170.533 79.1083C170.201 79.3333 169.817 79.4342 169.434 79.3974C169.052 79.3606 168.687 79.1879 168.39 78.9022C168.093 78.6166 167.877 78.2316 167.771 77.7983C167.665 77.3651 167.674 76.9043 167.796 76.4771C167.919 76.0499 168.149 75.6766 168.457 75.4068C168.765 75.137 169.135 74.9836 169.519 74.9669C169.903 74.9502 170.282 75.0711 170.606 75.3134H170.606Z" fill="#FFB6B6"/>
<path d="M183.926 61.6105L182.394 60.236C181.98 60.0517 181.413 60.5754 181.313 61.0818L179.151 71.4433L183.656 75.2495L184.286 74.0865L183.926 61.6105Z" fill="#3F3D56"/>
<g opacity="0.2">
<path opacity="0.2" d="M192.714 66.6642C192.332 66.8423 191.942 66.9976 191.546 67.1294C191.42 67.1738 191.291 67.2161 191.163 67.2563C190.319 67.5309 189.453 67.6954 188.578 67.7469C188.202 67.7656 187.825 67.7536 187.45 67.7109C187.048 67.6639 186.65 67.5718 186.263 67.4361C186.25 67.4318 186.236 67.4276 186.223 67.4234C185.417 67.1549 184.679 66.6624 184.07 65.9876C183.934 65.8321 183.807 65.6661 183.69 65.4906C183.353 65.007 183.106 64.4464 182.965 63.8446C182.823 63.2427 182.79 62.6129 182.868 61.9953C182.883 61.8833 182.903 61.7725 182.929 61.6633C182.997 61.3657 183.087 61.0756 183.198 60.7963C183.246 60.6652 183.3 60.5362 183.358 60.4093L185.394 59.6016H189.272L191.948 60.4664L192.128 60.4791L192.132 60.5256L192.215 60.5531L192.174 60.9591L192.714 66.6642Z" fill="black"/>
</g>
<path d="M183.065 47.4323C182.237 47.3132 181.329 47.3974 180.684 48.0174C180.039 48.6375 179.83 49.9264 180.441 50.5926C180.982 51.1824 181.828 51.0437 182.552 51.2114C183.176 51.3755 183.735 51.7805 184.139 52.3616C184.544 52.9427 184.771 53.6662 184.783 54.4164C184.773 56.5678 183.013 58.197 182.697 60.3163C182.481 61.7626 183.001 63.2847 183.9 64.3064C184.799 65.3281 186.034 65.8802 187.279 66.0297C188.524 66.1793 189.782 65.9509 190.992 65.5756C192.207 65.1987 193.403 64.6641 194.422 63.8019C195.441 62.9397 196.277 61.7242 196.604 60.3006C196.932 58.8771 196.697 57.2449 195.853 56.1519C194.888 54.9002 193.281 54.4698 192.446 53.0951C191.509 51.554 191.856 49.3594 191.098 47.6887C190.592 46.5732 189.634 45.8124 188.613 45.4116C187.591 45.0108 186.501 44.9317 185.424 44.8929C184.859 44.8725 184.276 44.8657 183.748 45.1077C183.221 45.3498 182.758 45.9014 182.731 46.5648C182.703 47.2282 183.065 47.4323 183.065 47.4323Z" fill="#2F2E41"/>
</g>
<defs>
<filter id="filter0_d" x="0" y="0" width="214" height="140" filterUnits="userSpaceOnUse" color-interpolation-filters="sRGB">
<feFlood flood-opacity="0" result="BackgroundImageFix"/>
<feColorMatrix in="SourceAlpha" type="matrix" values="0 0 0 0 0 0 0 0 0 0 0 0 0 0 0 0 0 0 127 0" result="hardAlpha"/>
<feOffset/>
<feGaussianBlur stdDeviation="2"/>
<feComposite in2="hardAlpha" operator="out"/>
<feColorMatrix type="matrix" values="0 0 0 0 0 0 0 0 0 0 0 0 0 0 0 0 0 0 0.25 0"/>
<feBlend mode="normal" in2="BackgroundImageFix" result="effect1_dropShadow"/>
<feBlend mode="normal" in="SourceGraphic" in2="effect1_dropShadow" result="shape"/>
</filter>
<filter id="filter1_d" x="19.064" y="57.8164" width="117.424" height="34.236" filterUnits="userSpaceOnUse" color-interpolation-filters="sRGB">
<feFlood flood-opacity="0" result="BackgroundImageFix"/>
<feColorMatrix in="SourceAlpha" type="matrix" values="0 0 0 0 0 0 0 0 0 0 0 0 0 0 0 0 0 0 127 0" result="hardAlpha"/>
<feOffset dy="4"/>
<feGaussianBlur stdDeviation="2"/>
<feComposite in2="hardAlpha" operator="out"/>
<feColorMatrix type="matrix" values="0 0 0 0 0 0 0 0 0 0 0 0 0 0 0 0 0 0 0.25 0"/>
<feBlend mode="normal" in2="BackgroundImageFix" result="effect1_dropShadow"/>
<feBlend mode="normal" in="SourceGraphic" in2="effect1_dropShadow" result="shape"/>
</filter>
</defs>
</svg>
