<svg xmlns="http://www.w3.org/2000/svg" width="48" height="48" viewBox="0 0 48 48">
  <defs>
    <style>
      .cls-1 {
        fill: none;
      }

      .cls-2 {
        fill: #333;
      }
    </style>
  </defs>
  <g id="comment1" transform="translate(-231 -1269)">
    <rect id="rect_567" data-name="rect 567" class="cls-1" width="48" height="48" transform="translate(231 1269)"/>
    <g id="list_1033" data-name="list 1033" transform="translate(-282.778 630.964)">
      <g id="list_1031" data-name="list 1031" transform="translate(516.778 645.036)">
        <path id="line_1050" data-name="line 1050" class="cls-2" d="M525.021,679.185a5.3,5.3,0,0,1-1.047-.108,1.315,1.315,0,0,1-.781-2.087c.608-.795,1.384-2.255,1.261-2.926a.217.217,0,0,0-.126-.177,15.119,15.119,0,0,1-7.549-12.669c0-8.923,8.982-16.182,20.022-16.182s20.024,7.259,20.024,16.182a1.313,1.313,0,0,1-2.627,0c0-7.474-7.8-13.555-17.4-13.555s-17.4,6.081-17.4,13.555a12.514,12.514,0,0,0,6.309,10.437,2.823,2.823,0,0,1,1.324,1.94,4.581,4.581,0,0,1-.268,2.294c.29-.211.587-.462.9-.739.758-.669,1.613-1.425,2.721-1.153a32.673,32.673,0,0,0,6.408.779,22.335,22.335,0,0,0,3.063-.21,1.313,1.313,0,1,1,.362,2.6,24.909,24.909,0,0,1-3.425.236,35.665,35.665,0,0,1-6.782-.795c-.164.12-.415.34-.611.512A6.644,6.644,0,0,1,525.021,679.185Z" transform="translate(-516.778 -645.036)"/>
      </g>
      <g id="list_1032" data-name="list 1032" transform="translate(531.211 655.523)">
        <path id="line_1051" data-name="line 1051" class="cls-2" d="M549.425,676.682a4.836,4.836,0,0,1-3.216-1.488c-.08-.07-.152-.138-.221-.2a24.155,24.155,0,0,1-4.423.5c-7.608,0-13.8-5.039-13.8-11.236s6.189-11.235,13.8-11.235,13.8,5.039,13.8,11.235a10.5,10.5,0,0,1-5.125,8.751,4.2,4.2,0,0,0,.753,1.507,1.313,1.313,0,0,1-.78,2.087A3.881,3.881,0,0,1,549.425,676.682Zm-3.279-4.372a2.3,2.3,0,0,1,1.463.625,2.737,2.737,0,0,1,.041-.5,2.315,2.315,0,0,1,1.083-1.586,7.817,7.817,0,0,0,4-6.594c0-4.747-5.011-8.608-11.172-8.608s-11.17,3.861-11.17,8.608,5.01,8.609,11.17,8.609a21.244,21.244,0,0,0,4.173-.506A2.13,2.13,0,0,1,546.145,672.309Z" transform="translate(-527.767 -653.021)"/>
      </g>
    </g>
  </g>
</svg>
