<svg xmlns="http://www.w3.org/2000/svg" width="32" height="32" viewBox="0 0 32 32">
  <defs>
    <style>
      .cls-1 {
        fill: none;
      }

      .cls-2 {
        fill: #666;
      }
    </style>
  </defs>
  <g id="comment2" transform="translate(-247 -628)">
    <rect id="rect_646" data-name="rect 646" class="cls-1" width="32" height="32" transform="translate(247 628)"/>
    <g id="list_1324" data-name="list 1324" transform="translate(49.055 69.114)">
      <path id="line_1100" data-name="line 1100" class="cls-2" d="M225.142,582.892h-1.658v0l-8.9.008-4.391,4.375a1,1,0,1,1-1.41-1.409l4.5-4.485.017-.025a.993.993,0,0,1,.831-.448l10.1-.01c.872-.069,1.109-.33,1.171-1.289l-.01-12.514c-.031-1.716-.335-2.138-1.758-2.207v-.012h-.527v0l-.217,0-17.909.009c-1.6.043-2,.408-2.044,1.859l.009,13.017c.068.859.332,1.086,1.337,1.144l3.466-.007a1,1,0,0,1,0,1.992l-2.889.006-.266-.006h-1.367a2.274,2.274,0,0,1-2.272-2.184l-.01-15.553a2.274,2.274,0,0,1,2.18-2.259l22.021-.011a2.265,2.265,0,0,1,2.239,1.912l.012,16.093A2.269,2.269,0,0,1,225.142,582.892Z"/>
      <path id="line_1101" data-name="line 1101" class="cls-2" d="M221.44,579.034a1.538,1.538,0,0,1,1.538-1.538l.06-.015a1.538,1.538,0,0,1,0,3.075l-.06.015A1.539,1.539,0,0,1,221.44,579.034Z" transform="translate(-8.927 -6.357)"/>
      <path id="line_1102" data-name="line 1102" class="cls-2" d="M236.177,580.557l-.06.015a1.538,1.538,0,1,1,0-3.075l.06-.015a1.538,1.538,0,0,1,0,3.075Z" transform="translate(-14.65 -6.357)"/>
      <path id="line_1103" data-name="line 1103" class="cls-2" d="M210.156,577.5l.06-.015a1.538,1.538,0,0,1,0,3.075l-.06.015a1.538,1.538,0,1,1,0-3.075Z" transform="translate(-3.342 -6.357)"/>
    </g>
  </g>
</svg>
