<svg xmlns="http://www.w3.org/2000/svg" xmlns:xlink="http://www.w3.org/1999/xlink" width="78" height="78" viewBox="0 0 78 78"><defs><clipPath id="a"><rect width="78" height="78" fill="none"/></clipPath></defs><g transform="translate(0 0)"><g transform="translate(0 0)" clip-path="url(#a)"><path d="M60.4,78H17.6A17.594,17.594,0,0,1,0,60.4V17.6A17.594,17.594,0,0,1,17.6,0H60.4A17.593,17.593,0,0,1,78,17.6V60.4A17.594,17.594,0,0,1,60.4,78" transform="translate(0 0)" fill="#97bbef"/><path d="M54.456,27.54A13.555,13.555,0,0,0,40.689,13.991a13.715,13.715,0,0,0-13.32,12.567A13.5,13.5,0,0,0,37.428,40.63h.01v19.1a1.763,1.763,0,0,0,.458,1.179l3.885,4.255a.96.96,0,0,0,1.429,0l5.6-6.11a1.071,1.071,0,0,0-.033-1.484l-2.858-2.858a1.165,1.165,0,0,1,0-1.636L48.991,50a1.508,1.508,0,0,0,0-2.149l-3.7-3.7a1.889,1.889,0,0,1-.557-1.342V40.565a13.561,13.561,0,0,0,9.72-13.025M40.9,21.486a3.458,3.458,0,1,1-3.459,3.459A3.471,3.471,0,0,1,40.9,21.486" transform="translate(-1.908 -0.976)" fill="#fff"/></g></g></svg>