<svg xmlns="http://www.w3.org/2000/svg" xmlns:xlink="http://www.w3.org/1999/xlink" width="78" height="78" viewBox="0 0 78 78"><defs><clipPath id="a"><rect width="78" height="78" fill="#1e50a2"/></clipPath></defs><g transform="translate(0 0)"><g transform="translate(0 0)" clip-path="url(#a)"><path d="M2.786,0H32.557a2.785,2.785,0,0,1,2.786,2.786V32.558a2.785,2.785,0,0,1-2.786,2.786H2.786A2.785,2.785,0,0,1,0,32.558V2.787A2.785,2.785,0,0,1,2.786,0M6.268,5.572a.7.7,0,0,0-.7.7V29.077a.7.7,0,0,0,.7.7H29.076a.7.7,0,0,0,.7-.7V6.269a.7.7,0,0,0-.7-.7ZM45.442,0H75.214A2.786,2.786,0,0,1,78,2.787V32.558a2.786,2.786,0,0,1-2.786,2.786H45.442a2.786,2.786,0,0,1-2.786-2.786V2.787A2.786,2.786,0,0,1,45.442,0m3.482,5.571a.7.7,0,0,0-.7.7V29.077a.7.7,0,0,0,.7.7H71.731a.7.7,0,0,0,.7-.7V6.269a.7.7,0,0,0-.7-.7ZM2.786,42.657H32.557a2.786,2.786,0,0,1,2.786,2.786V75.215A2.786,2.786,0,0,1,32.557,78H2.786A2.786,2.786,0,0,1,0,75.215V45.443a2.786,2.786,0,0,1,2.786-2.786m3.481,5.572a.7.7,0,0,0-.7.7V71.732a.7.7,0,0,0,.7.7H29.076a.7.7,0,0,0,.7-.7V48.925a.7.7,0,0,0-.7-.7ZM62.156,78H53.8V68.686h8.357Zm5.571-9.315H78v6.528A2.787,2.787,0,0,1,75.214,78H67.727ZM53.8,63.115V57.369H48.227V78H45.442a2.787,2.787,0,0,1-2.786-2.786V45.443a2.787,2.787,0,0,1,2.786-2.786H66.858v15.06h5.571V42.657h2.785A2.787,2.787,0,0,1,78,45.443V63.115ZM17.672,23.244a5.572,5.572,0,1,1,5.572-5.572,5.571,5.571,0,0,1-5.572,5.572m42.656,0A5.572,5.572,0,1,1,65.9,17.673a5.571,5.571,0,0,1-5.572,5.572M17.672,65.9a5.571,5.571,0,1,1,5.572-5.572A5.571,5.571,0,0,1,17.672,65.9" transform="translate(0 0)" fill="#1e50a2"/></g></g></svg>