<svg xmlns="http://www.w3.org/2000/svg" xmlns:xlink="http://www.w3.org/1999/xlink" width="78" height="78" viewBox="0 0 78 78"><defs><clipPath id="a"><rect width="78" height="78" fill="none"/></clipPath><clipPath id="b"><rect width="77.986" height="77.999" fill="#64c987"/></clipPath></defs><g transform="translate(0 0)"><g transform="translate(0 0)"><g clip-path="url(#a)"><path d="M22.332,22.714a3.277,3.277,0,0,0-2.325,5.6,3.3,3.3,0,0,0,4.647,0,3.275,3.275,0,0,0-2.321-5.592" transform="translate(-1.051 -1.312)" fill="#64c987"/><path d="M48.7,41.447a2.621,2.621,0,0,0-1.819.749,2.571,2.571,0,0,0-.756,1.814,2.578,2.578,0,0,0,4.393,1.814,2.57,2.57,0,0,0,.751-1.814,2.561,2.561,0,0,0-2.57-2.563" transform="translate(-2.546 -2.394)" fill="#64c987"/></g></g><g transform="translate(0.014 0.001)"><g clip-path="url(#b)"><path d="M40.069,29.263a3.268,3.268,0,0,0,3.282-3.277,3.315,3.315,0,0,0-.956-2.319,3.369,3.369,0,0,0-2.326-.954,3.277,3.277,0,0,0-2.325,5.6,3.362,3.362,0,0,0,2.325.954" transform="translate(-2.044 -1.313)" fill="#64c987"/><path d="M65.35.1H12.638A12.64,12.64,0,0,0,0,12.744V65.251A12.639,12.639,0,0,0,12.638,77.9H65.355A12.638,12.638,0,0,0,77.993,65.251V12.744A12.646,12.646,0,0,0,65.35.1M29.268,52.219a40.9,40.9,0,0,1-8.284-1.181L12.72,55.171l2.365-7.094c-5.918-4.128-9.458-9.443-9.458-15.914,0-11.227,10.649-20.056,23.646-20.056,11.628,0,21.812,7.054,23.856,16.561a19.879,19.879,0,0,0-2.277-.14c-11.234,0-20.1,8.363-20.1,18.661a17.662,17.662,0,0,0,.727,4.945c-.731.048-1.467.087-2.208.087m34.874,8.261,1.779,5.888-6.484-3.545a29.671,29.671,0,0,1-7.1,1.186c-11.248,0-20.106-7.668-20.106-17.115,0-9.428,8.858-17.115,20.106-17.115,10.628,0,20.086,7.682,20.086,17.115,0,5.324-3.535,10.031-8.283,13.585" transform="translate(-0.013 -0.006)" fill="#64c987"/></g></g><g transform="translate(0 0)"><g clip-path="url(#a)"><path d="M62.331,41.447a2.618,2.618,0,0,0-1.819.749,2.563,2.563,0,0,0-.751,1.814,2.575,2.575,0,0,0,4.389,1.814,2.569,2.569,0,0,0,.75-1.814,2.559,2.559,0,0,0-2.569-2.563" transform="translate(-3.299 -2.394)" fill="#64c987"/></g></g></g></svg>