<svg xmlns="http://www.w3.org/2000/svg" xmlns:xlink="http://www.w3.org/1999/xlink" width="48" height="48" viewBox="0 0 48 48">
  <defs>
    <clipPath id="clip-path">
      <rect id="rect_242" data-name="rect 242" width="48" height="48" transform="translate(384.242 336.416)" fill="none"/>
    </clipPath>
  </defs>
  <g id="tab_zhongxin_sel" transform="translate(-601 -1247)">
    <g id="choose" transform="translate(216.758 910.584)">
      <g id="list_289" data-name="list 289" opacity="0.2">
        <g id="list_288" data-name="list 288">
          <g id="list_287" data-name="list 287" clip-path="url(#clip-path)">
            <rect id="rect_241" data-name="rect 241" width="47" height="47" transform="translate(384.743 336.916)" fill="none"/>
            <path id="line_133" data-name="line 133" d="M431.243,383.416h-46v-46h46Zm1-47h-48v48h48Z" fill="none"/>
          </g>
        </g>
      </g>
      <g id="list_290" data-name="list 290">
        <circle id="circle_16" data-name="circle 16" cx="7.182" cy="7.182" r="7.182" transform="translate(401.06 348.872)" fill="#ff7058" opacity="0.35"/>
        <circle id="circle_17" data-name="circle 17" cx="8" cy="8" r="8" transform="translate(400.243 346.02)" fill="none" stroke="#1e50a2" stroke-miterlimit="10" stroke-width="2"/>
        <path id="rect_243" data-name="rect 243" d="M8.111,0H23.889A8.111,8.111,0,0,1,32,8.111v.465a3,3,0,0,1-3,3H3a3,3,0,0,1-3-3V8.111A8.111,8.111,0,0,1,8.111,0Z" transform="translate(392.242 363.236)" fill="none" stroke="#1e50a2" stroke-miterlimit="10" stroke-width="2"/>
      </g>
    </g>
    <g id="display" transform="translate(251 2)">
      <path id="polygon_1" data-name="polygon 1" d="M1.5,0,3,3,1.5,6,0,3Z" transform="translate(383 1249)" fill="#1e50a2" opacity="0.74"/>
      <path id="polygon_2" data-name="polygon 2" d="M2,0l.5,1.488,1.5.04-1.191.96L3.236,4,2,3.106.764,4l.427-1.512L0,1.528l1.5-.04Z" transform="translate(370 1247)" fill="#1e50a2"/>
      <path id="polygon_3" data-name="polygon 3" d="M3,0l.75,2.231L6,2.292,4.214,3.731,4.854,6,3,4.658,1.146,6l.641-2.269L0,2.292l2.25-.06Z" transform="translate(390 1266)" fill="#1e50a2" opacity="0.47"/>
      <path id="polygon_5" data-name="polygon 5" d="M3,0l.75,2.231L6,2.292,4.214,3.731,4.854,6,3,4.658,1.146,6l.641-2.269L0,2.292l2.25-.06Z" transform="translate(377 1262)" fill="#1e50a2"/>
      <path id="polygon_4" data-name="polygon 4" d="M2,0l.5,1.488,1.5.04-1.191.96L3.236,4,2,3.106.764,4l.427-1.512L0,1.528l1.5-.04Z" transform="translate(390 1255)" fill="#1e50a2" opacity="0.18"/>
    </g>
  </g>
</svg>
