<svg xmlns="http://www.w3.org/2000/svg" xmlns:xlink="http://www.w3.org/1999/xlink" width="48" height="48" viewBox="0 0 48 48"><defs><clipPath id="a"><rect width="48" height="48" transform="translate(0.234 0.234)" fill="none"/></clipPath></defs><g transform="translate(-644.567 -156.567)"><g transform="translate(644.333 156.333)"><g transform="translate(0)"><g clip-path="url(#a)"><path d="M0,0H47.345V47.345H0Z" transform="translate(0.562 0.562)" fill="none"/><path d="M623.539,96.649H577.2V50.311h46.338ZM624.546,49.3H576.194V97.656h48.352Z" transform="translate(-576.136 -49.246)" fill="none"/></g></g><g transform="translate(6.988 4.787)"><path d="M1.823,0H32.67a1.823,1.823,0,0,1,1.823,1.823v9.254a0,0,0,0,1,0,0H0a0,0,0,0,1,0,0V1.823A1.823,1.823,0,0,1,1.823,0Z" transform="translate(0 4.672)" fill="none" stroke="#1e50a2" stroke-miterlimit="10" stroke-width="3"/><path d="M1.823,0H32.67a1.823,1.823,0,0,1,1.823,1.823V23.145a0,0,0,0,1,0,0H0a0,0,0,0,1,0,0V1.823A1.823,1.823,0,0,1,1.823,0Z" transform="translate(34.493 38.894) rotate(-180)" fill="none" stroke="#1e50a2" stroke-miterlimit="10" stroke-width="3"/><line x2="7.421" transform="translate(3.621 23.284)" fill="none" stroke="#1e50a2" stroke-miterlimit="10" stroke-width="3"/><line x2="7.421" transform="translate(13.844 23.284)" fill="none" stroke="#1e50a2" stroke-miterlimit="10" stroke-width="3"/><line x2="7.421" transform="translate(24.066 23.284)" fill="none" stroke="#1e50a2" stroke-miterlimit="10" stroke-width="3"/><line x2="7.421" transform="translate(3.621 30.818)" fill="none" stroke="#1e50a2" stroke-miterlimit="10" stroke-width="3"/><line x2="7.421" transform="translate(13.844 30.818)" fill="none" stroke="#1e50a2" stroke-miterlimit="10" stroke-width="3"/><line x2="7.421" transform="translate(24.066 30.818)" fill="none" stroke="#1e50a2" stroke-miterlimit="10" stroke-width="3"/><line y2="9.344" transform="translate(11.043)" fill="none" stroke="#1e50a2" stroke-miterlimit="10" stroke-width="3"/><line y2="9.344" transform="translate(23.622)" fill="none" stroke="#1e50a2" stroke-miterlimit="10" stroke-width="3"/></g></g></g></svg>