<svg xmlns="http://www.w3.org/2000/svg" xmlns:xlink="http://www.w3.org/1999/xlink" width="93.61" height="75.016" viewBox="0 0 93.61 75.016"><defs><clipPath id="a"><rect width="93.61" height="75.016" fill="#999"/></clipPath></defs><g transform="translate(-17 -381)"><g transform="translate(17 381)"><g transform="translate(0 0)" clip-path="url(#a)"><path d="M295.34,615a11.9,11.9,0,1,0,11.9,11.9,11.912,11.912,0,0,0-11.9-11.9Zm0,0" transform="translate(-248.55 -584.36)" fill="#999"/><path d="M99.428,396.48a8.581,8.581,0,0,1-8.349-6.746,10.194,10.194,0,0,0-9.91-8.014H46.191a10.194,10.194,0,0,0-9.91,8.014,8.582,8.582,0,0,1-8.349,6.746A11.061,11.061,0,0,0,16.88,407.532v37.932a11.061,11.061,0,0,0,11.052,11.052h71.5a11.061,11.061,0,0,0,11.052-11.052V407.532A11.061,11.061,0,0,0,99.428,396.48ZM63.685,443.725a19.558,19.558,0,1,1,19.558-19.558,19.58,19.58,0,0,1-19.558,19.558Zm0,0" transform="translate(-16.896 -381.626)" fill="#999"/></g></g></g></svg>