<svg width="32" height="32" viewBox="0 0 32 32" fill="none" xmlns="http://www.w3.org/2000/svg">
<path d="M16 32.001C24.8366 32.001 32 24.8375 32 16.001C32 7.16442 24.8366 0.000976562 16 0.000976562C7.16344 0.000976562 0 7.16442 0 16.001C0 24.8375 7.16344 32.001 16 32.001Z" fill="#1E50A2"/>
<path d="M26.276 8.49512H5.74805V23.9861H26.276V8.49512Z" fill="white"/>
<path d="M12.3811 22.977L6.6901 16.977C6.65206 16.9356 6.6313 16.8812 6.6321 16.825V16.819C6.6323 16.7748 6.64628 16.7318 6.6721 16.696L7.4831 15.571C7.49648 15.5515 7.51373 15.535 7.53376 15.5225C7.5538 15.51 7.57619 15.5018 7.59955 15.4983C7.62291 15.4948 7.64674 15.4962 7.66954 15.5023C7.69235 15.5085 7.71364 15.5193 7.7321 15.534L12.3441 19.14C12.4247 19.1992 12.5225 19.2301 12.6225 19.2282C12.7224 19.2262 12.8189 19.1913 12.8971 19.129L24.3071 9.44099C24.3447 9.41055 24.3921 9.39479 24.4405 9.39663C24.4888 9.39847 24.5349 9.41778 24.5701 9.45099L25.3421 10.228C25.3522 10.2381 25.361 10.2495 25.3681 10.262V10.447C25.3602 10.46 25.3508 10.4721 25.3401 10.483L12.8761 22.984C12.8435 23.0176 12.8043 23.0441 12.7611 23.062C12.7179 23.08 12.6714 23.0889 12.6246 23.0882C12.5778 23.0875 12.5316 23.0773 12.4889 23.0582C12.4462 23.0391 12.4078 23.0115 12.3761 22.977H12.3811Z" fill="#09BB07"/>
<path d="M12.3811 22.977L6.6901 16.977C6.65206 16.9356 6.6313 16.8812 6.6321 16.825V16.819C6.63236 16.7748 6.64634 16.7318 6.6721 16.696L7.4831 15.571C7.49648 15.5515 7.51373 15.535 7.53376 15.5225C7.5538 15.51 7.57619 15.5018 7.59955 15.4983C7.62291 15.4948 7.64674 15.4962 7.66954 15.5023C7.69235 15.5085 7.71364 15.5193 7.7321 15.534L12.3441 19.14C12.4247 19.199 12.5225 19.2299 12.6225 19.2279C12.7224 19.2259 12.8189 19.1912 12.8971 19.129L24.3071 9.44099C24.3447 9.41055 24.3921 9.39479 24.4405 9.39663C24.4888 9.39847 24.5349 9.41778 24.5701 9.45099L25.3421 10.228C25.3522 10.2381 25.3609 10.2496 25.3681 10.262V10.447C25.3602 10.46 25.3508 10.4721 25.3401 10.483L12.8761 22.984C12.8435 23.0176 12.8043 23.0441 12.7611 23.062C12.7179 23.08 12.6714 23.0889 12.6246 23.0882C12.5778 23.0875 12.5316 23.0773 12.4889 23.0582C12.4462 23.0391 12.4078 23.0115 12.3761 22.977H12.3811Z" fill="white"/>
</svg>
