<svg xmlns="http://www.w3.org/2000/svg" xmlns:xlink="http://www.w3.org/1999/xlink" width="48" height="48" viewBox="0 0 48 48"><defs><clipPath id="a"><rect width="48" height="48" transform="translate(575.463 48.777)" fill="none"/></clipPath></defs><g transform="translate(-575.463 -48.777)"><g opacity="0.2"><g clip-path="url(#a)"><rect width="47" height="47" transform="translate(575.963 49.277)" fill="none"/><path d="M622.463,95.777h-46v-46h46Zm1-47h-48v48h48Z" fill="none"/></g></g><path d="M1.491,0h0A5.137,5.137,0,0,1,6.627,5.137v.557A5.137,5.137,0,0,1,1.491,10.83h0A1.491,1.491,0,0,1,0,9.34V1.491A1.491,1.491,0,0,1,1.491,0Z" transform="translate(586.029 80.617) rotate(180)" fill="none" stroke="#000" stroke-miterlimit="10" stroke-width="2"/><path d="M1.491,0h0A5.137,5.137,0,0,1,6.627,5.137v.557A5.137,5.137,0,0,1,1.491,10.83h0A1.491,1.491,0,0,1,0,9.34V1.491A1.491,1.491,0,0,1,1.491,0Z" transform="translate(612.898 69.787)" fill="none" stroke="#000" stroke-miterlimit="10" stroke-width="2"/><path d="M599.775,89.334H594.2a8.175,8.175,0,0,1-8.175-8.175V67.618a13.435,13.435,0,0,1,13.434-13.435h0A13.435,13.435,0,0,1,612.9,67.618v6.32" fill="none" stroke="#000" stroke-linecap="round" stroke-miterlimit="10" stroke-width="2"/><ellipse cx="1.441" cy="2.036" rx="1.441" ry="2.036" transform="translate(598.78 87.298)"/></g></svg>