<svg xmlns="http://www.w3.org/2000/svg" width="31.999" height="32" viewBox="0 0 31.999 32">
  <defs>
    <style>
      .cls-1 {
        fill: #fff;
      }
    </style>
  </defs>
  <g id="delete2" transform="translate(-605.289 -310.868)">
    <g id="组_845" data-name="组 845">
      <path id="路径_982" data-name="路径 982" class="cls-1" d="M630.766,342.868H611.834a1,1,0,0,1-1-.944l-1.5-26.382a1,1,0,0,1,1-1.057h21.9a1,1,0,0,1,1,1.056l-1.473,26.382A1,1,0,0,1,630.766,342.868Zm-17.987-2H629.82l1.362-24.383H611.4Z"/>
    </g>
    <g id="组_846" data-name="组 846">
      <path id="路径_983" data-name="路径 983" class="cls-1" d="M636.288,316.485h-3.74a1,1,0,0,1,0-2h3.74a1,1,0,0,1,0,2Z"/>
    </g>
    <g id="组_847" data-name="组 847">
      <path id="路径_984" data-name="路径 984" class="cls-1" d="M610.068,316.485h-3.779a1,1,0,0,1,0-2h3.779a1,1,0,0,1,0,2Z"/>
    </g>
    <g id="组_848" data-name="组 848">
      <path id="路径_985" data-name="路径 985" class="cls-1" d="M625.994,316.229a1,1,0,0,1-1-1v-2.361h-7.41v2.361a1,1,0,0,1-2,0v-3.361a1,1,0,0,1,1-1h9.41a1,1,0,0,1,1,1v3.361A1,1,0,0,1,625.994,316.229Z"/>
    </g>
    <g id="组_849" data-name="组 849">
      <path id="路径_986" data-name="路径 986" class="cls-1" d="M616.337,338.993a1,1,0,0,1-1-.944l-1.052-18.534a1,1,0,1,1,2-.114l1.052,18.535a1,1,0,0,1-.942,1.055Z"/>
    </g>
    <g id="组_850" data-name="组 850">
      <path id="路径_987" data-name="路径 987" class="cls-1" d="M626.2,338.993l-.058,0a1,1,0,0,1-.941-1.055l1.053-18.535a1,1,0,1,1,2,.114L627.2,338.049A1,1,0,0,1,626.2,338.993Z"/>
    </g>
    <g id="组_851" data-name="组 851">
      <path id="路径_988" data-name="路径 988" class="cls-1" d="M621.289,338.993a1,1,0,0,1-1-1V319.458a1,1,0,0,1,2,0v18.535A1,1,0,0,1,621.289,338.993Z"/>
    </g>
  </g>
</svg>
