<svg xmlns="http://www.w3.org/2000/svg" xmlns:xlink="http://www.w3.org/1999/xlink" width="48" height="48" viewBox="0 0 48 48"><defs><clipPath id="a"><rect width="48" height="48" transform="translate(480.461 46.715)" fill="none"/></clipPath></defs><g transform="translate(-480.461 -46.715)"><g opacity="0.2"><g clip-path="url(#a)"><rect width="47" height="47" transform="translate(480.961 47.215)" fill="none"/><path d="M527.461,93.715h-46v-46h46Zm1-47h-48v48h48Z" fill="none"/></g></g><path d="M491.895,71.637V54.348a1.992,1.992,0,0,1,1.992-1.992h21.149a1.991,1.991,0,0,1,1.991,1.992V71.512" fill="none" stroke="#000" stroke-miterlimit="10" stroke-width="2"/><path d="M520.554,89.073H488.368a1.4,1.4,0,0,1-1.4-1.4V71.418a1.4,1.4,0,0,1,1.83-1.334l14.643,4.7a3.328,3.328,0,0,0,2.042,0l14.644-4.7a1.4,1.4,0,0,1,1.829,1.334V87.671A1.4,1.4,0,0,1,520.554,89.073Z" fill="none" stroke="#000" stroke-miterlimit="10" stroke-width="2"/><line x2="13.019" transform="translate(499.048 59.941)" fill="none" stroke="#000" stroke-linecap="round" stroke-miterlimit="10" stroke-width="2"/><line x2="8.264" transform="translate(499.048 64.696)" fill="none" stroke="#000" stroke-linecap="round" stroke-miterlimit="10" stroke-width="2"/></g></svg>