<svg width="48" height="48" viewBox="0 0 48 48" fill="none" xmlns="http://www.w3.org/2000/svg">
<path d="M9.98438 38V44M3.98438 38H9.98438H3.98438ZM15.9844 38H9.98438H15.9844ZM9.98438 38V32V38Z" stroke="#1E50A2" stroke-width="2" stroke-linecap="round" stroke-linejoin="round"/>
<path d="M14 4H33L42 13V38" stroke="#1E50A2" stroke-width="2" stroke-linecap="round" stroke-linejoin="round"/>
<path d="M22 44H33C33.7956 44 34.5587 43.6839 35.1213 43.1213C35.6839 42.5587 36 41.7956 36 41V17.498C36.0001 17.3401 35.9691 17.1838 35.9087 17.0379C35.8483 16.8921 35.7597 16.7596 35.648 16.648L29.352 10.352C29.2402 10.2401 29.1074 10.1513 28.9611 10.0909C28.8149 10.0305 28.6582 9.99962 28.5 10H9C8.20435 10 7.44129 10.3161 6.87868 10.8787C6.31607 11.4413 6 12.2044 6 13V26" stroke="#1E50A2" stroke-width="2" stroke-linecap="round" stroke-linejoin="round"/>
<path d="M28 16.8002V10.7082C28.0002 10.5684 28.0419 10.4317 28.1197 10.3155C28.1975 10.1993 28.308 10.1088 28.4372 10.0553C28.5664 10.0018 28.7086 9.98779 28.8458 10.015C28.9829 10.0422 29.109 10.1094 29.208 10.2082L35.792 16.7922C35.8917 16.8908 35.9598 17.0169 35.9876 17.1544C36.0154 17.2919 36.0016 17.4346 35.9479 17.5642C35.8943 17.6938 35.8032 17.8045 35.6864 17.8822C35.5696 17.9598 35.4323 18.0009 35.292 18.0002H29.2C28.8817 18.0002 28.5765 17.8738 28.3515 17.6487C28.1264 17.4237 28 17.1185 28 16.8002Z" fill="#1E50A2" stroke="#1E50A2" stroke-width="2" stroke-linecap="round" stroke-linejoin="round"/>
</svg>
