<svg width="200" height="200" viewBox="0 0 200 200" fill="none" xmlns="http://www.w3.org/2000/svg">
<path d="M100 0.000976562C119.778 0.000976562 139.112 5.86587 155.557 16.854C172.002 27.8422 184.819 43.46 192.388 61.7326C199.957 80.0052 201.937 100.112 198.079 119.51C194.22 138.908 184.696 156.726 170.711 170.712C156.725 184.697 138.907 194.221 119.509 198.079C100.111 201.938 80.0043 199.958 61.7317 192.389C43.459 184.82 27.8412 172.003 16.853 155.558C5.8649 139.113 0 119.779 0 100.001C0 73.4793 10.5357 48.0439 29.2893 29.2903C48.043 10.5367 73.4783 0.000976563 100 0.000976563V0.000976562Z" fill="#A6CCFF"/>
</svg>
