<svg xmlns="http://www.w3.org/2000/svg" width="36" height="36" viewBox="0 0 36 36">
  <defs>
    <style>
      .cls-1 {
        fill: none;
      }

      .cls-2 {
        fill: #1e50a2;
      }
    </style>
  </defs>
  <g id="picture" transform="translate(-557 -431)">
    <rect id="矩形_521" data-name="矩形 521" class="cls-1" width="36" height="36" transform="translate(557 431)"/>
    <g id="组_838" data-name="组 838" transform="translate(395.567 -428.264)">
      <g id="组_836" data-name="组 836">
        <path id="路径_975" data-name="路径 975" class="cls-2" d="M194.433,889.264h-30a1,1,0,0,1-1-1V871.34a1,1,0,0,1,1-1h6.8l.711-4.242a1,1,0,0,1,.987-.834h13a1,1,0,0,1,.986.834l.713,4.242h6.8a1,1,0,0,1,1,1v16.924A1,1,0,0,1,194.433,889.264Zm-29-2h28V872.34h-6.65a1,1,0,0,1-.987-.834l-.713-4.242H173.777l-.711,4.242a1,1,0,0,1-.986.834h-6.647Z"/>
      </g>
      <g id="组_837" data-name="组 837">
        <path id="路径_976" data-name="路径 976" class="cls-2" d="M179.432,884.564a5.954,5.954,0,1,1,6-5.954A5.984,5.984,0,0,1,179.432,884.564Zm0-9.907a3.954,3.954,0,1,0,4,3.953A3.982,3.982,0,0,0,179.432,874.657Z"/>
      </g>
    </g>
  </g>
</svg>
