<svg width="48" height="48" viewBox="0 0 48 48" fill="none" xmlns="http://www.w3.org/2000/svg">
<path d="M24 48C37.2548 48 48 37.2548 48 24C48 10.7452 37.2548 0 24 0C10.7452 0 0 10.7452 0 24C0 37.2548 10.7452 48 24 48Z" fill="#A6CCFF"/>
<g filter="url(#filter0_d)">
<path fill-rule="evenodd" clip-rule="evenodd" d="M35.9986 23.5006C36.0121 23.9148 35.929 24.3266 35.7557 24.7044C35.5823 25.0822 35.3233 25.4159 34.9985 25.68L20.106 36.631L20.0903 36.6429H20.0818C19.7858 36.8702 19.4221 36.9957 19.0466 37C18.4391 36.9217 17.8867 36.6134 17.5068 36.1408C17.1269 35.6682 16.9496 35.0686 17.0125 34.4694V12.5318C16.9495 11.9331 17.1263 11.3338 17.5054 10.8611C17.8845 10.3884 18.436 10.0795 19.043 10C19.4185 10.0044 19.7822 10.1299 20.0782 10.3571H20.0866L20.1024 10.369L34.9948 21.32C35.3203 21.584 35.58 21.9178 35.7539 22.2958C35.9279 22.6738 36.0116 23.0859 35.9986 23.5006Z" fill="white"/>
</g>
<defs>
<filter id="filter0_d" x="13" y="10" width="27" height="35" filterUnits="userSpaceOnUse" color-interpolation-filters="sRGB">
<feFlood flood-opacity="0" result="BackgroundImageFix"/>
<feColorMatrix in="SourceAlpha" type="matrix" values="0 0 0 0 0 0 0 0 0 0 0 0 0 0 0 0 0 0 127 0" result="hardAlpha"/>
<feOffset dy="4"/>
<feGaussianBlur stdDeviation="2"/>
<feComposite in2="hardAlpha" operator="out"/>
<feColorMatrix type="matrix" values="0 0 0 0 0 0 0 0 0 0 0 0 0 0 0 0 0 0 0.25 0"/>
<feBlend mode="normal" in2="BackgroundImageFix" result="effect1_dropShadow"/>
<feBlend mode="normal" in="SourceGraphic" in2="effect1_dropShadow" result="shape"/>
</filter>
</defs>
</svg>
