<svg xmlns="http://www.w3.org/2000/svg" width="22" height="32" viewBox="0 0 22 32">
  <defs>
    <style>
      .cls-1 {
        fill: #fff;
      }
    </style>
  </defs>
  <g id="remind" transform="translate(-611.044 -1302.933)">
    <g id="组_868" data-name="组 868">
      <path id="路径_1000" data-name="路径 1000" class="cls-1" d="M629.49,1322.132a1,1,0,0,1-1-1v-4.774c-.042-3.152-2.934-5.727-6.446-5.727-3.5,0-6.39,2.564-6.446,5.717,0,.133,0,4.747,0,4.784a1,1,0,0,1-2,0c0-.038,0-4.79,0-4.828.077-4.228,3.866-7.673,8.446-7.673,4.6,0,8.39,3.461,8.446,7.714v4.787A1,1,0,0,1,629.49,1322.132Z"/>
    </g>
    <g id="组_869" data-name="组 869">
      <path id="路径_1001" data-name="路径 1001" class="cls-1" d="M622.044,1310.012a1,1,0,0,1-1-1V1307.2a1,1,0,0,1,2,0v1.816A1,1,0,0,1,622.044,1310.012Z"/>
    </g>
    <g id="组_870" data-name="组 870">
      <path id="路径_1002" data-name="路径 1002" class="cls-1" d="M622.044,1334.933a3.8,3.8,0,0,1-3.9-3.679,1,1,0,0,1,2,0,1.913,1.913,0,0,0,3.8,0,1,1,0,0,1,2,0A3.8,3.8,0,0,1,622.044,1334.933Z"/>
    </g>
    <g id="组_871" data-name="组 871">
      <path id="路径_1003" data-name="路径 1003" class="cls-1" d="M622.043,1308.1a2.587,2.587,0,1,1,2.715-2.584A2.654,2.654,0,0,1,622.043,1308.1Zm0-3.168a.6.6,0,1,0,.715.584A.66.66,0,0,0,622.043,1304.933Z"/>
    </g>
    <g id="组_872" data-name="组 872">
      <path id="路径_1004" data-name="路径 1004" class="cls-1" d="M628.685,1328.491H615.4c-2.769,0-4.358-2.682-4.358-7.359a1,1,0,0,1,1-1h20a1,1,0,0,1,1,1C633.044,1322.952,633.044,1328.491,628.685,1328.491Zm-15.6-6.359c.112,1.617.563,4.359,2.322,4.359h13.283c1.5,0,2.218-1.316,2.34-4.359Z"/>
    </g>
  </g>
</svg>
