<svg width="32" height="32" viewBox="0 0 32 32" fill="none" xmlns="http://www.w3.org/2000/svg">
<path d="M16 31C24.2843 31 31 24.2843 31 16C31 7.71573 24.2843 1 16 1C7.71573 1 1 7.71573 1 16C1 24.2843 7.71573 31 16 31Z" fill="#E1E1E1"/>
<path d="M16.0001 32.0004C12.8355 32.0005 9.74197 31.0622 7.11067 29.3041C4.47938 27.546 2.42853 25.0471 1.21748 22.1234C0.00642896 19.1997 -0.310425 15.9826 0.306986 12.8788C0.924398 9.77503 2.44834 6.92406 4.6861 4.68641C6.17188 3.20064 7.93575 2.02205 9.87701 1.21796C11.8183 0.413863 13.8989 1.56552e-08 16.0001 0C18.1013 -1.56552e-08 20.1819 0.413863 22.1232 1.21796C24.0645 2.02205 25.8283 3.20064 27.3141 4.68641C28.7999 6.17219 29.9785 7.93606 30.7826 9.87732C31.5867 11.8186 32.0005 13.8992 32.0005 16.0004C32.0005 18.1016 31.5867 20.1822 30.7826 22.1235C29.9785 24.0648 28.7999 25.8286 27.3141 27.3144C25.8316 28.8046 24.0684 29.986 22.1263 30.7903C20.1843 31.5947 18.1021 32.006 16.0001 32.0004ZM16.0001 1.39141C13.1107 1.39141 10.2862 2.24822 7.88378 3.85347C5.48134 5.45873 3.60887 7.74034 2.50315 10.4098C1.39743 13.0792 1.10812 16.0166 1.67181 18.8505C2.2355 21.6844 3.62687 24.2874 5.66998 26.3305C7.71308 28.3736 10.3162 29.765 13.15 30.3287C15.9839 30.8924 18.9213 30.6031 21.5907 29.4974C24.2602 28.3916 26.5418 26.5192 28.147 24.1167C29.7523 21.7143 30.6091 18.8898 30.6091 16.0004C30.6046 12.1272 29.064 8.414 26.3253 5.67526C23.5865 2.93651 19.8733 1.39591 16.0001 1.39141Z" fill="#C9C9C9"/>
</svg>
