<svg xmlns="http://www.w3.org/2000/svg" xmlns:xlink="http://www.w3.org/1999/xlink" width="48" height="48" viewBox="0 0 48 48">
  <defs>
    <clipPath id="clip-path">
      <rect id="rect_278" data-name="rect 278" width="48" height="48" transform="translate(384.06 239.347)" fill="none"/>
    </clipPath>
  </defs>
  <g id="tab_zhongxin_nor" transform="translate(-384.06 -239.347)">
    <g id="list_334" data-name="list 334" opacity="0.2">
      <g id="list_333" data-name="list 333">
        <g id="list_332" data-name="list 332" clip-path="url(#clip-path)">
          <rect id="rect_277" data-name="rect 277" width="47" height="47" transform="translate(384.56 239.847)" fill="none"/>
          <path id="line_150" data-name="line 150" d="M431.061,286.347h-46v-46h46Zm1-47h-48v48h48Z" fill="none"/>
        </g>
      </g>
    </g>
    <g id="list_335" data-name="list 335">
      <circle id="circle_26" data-name="circle 26" cx="8" cy="8" r="8" transform="translate(400.061 248.95)" fill="none" stroke="#666" stroke-miterlimit="10" stroke-width="2"/>
      <path id="rect_279" data-name="rect 279" d="M8.111,0H23.889A8.111,8.111,0,0,1,32,8.111v.465a3,3,0,0,1-3,3H3a3,3,0,0,1-3-3V8.111A8.111,8.111,0,0,1,8.111,0Z" transform="translate(392.06 266.166)" fill="none" stroke="#666" stroke-miterlimit="10" stroke-width="2"/>
    </g>
  </g>
</svg>
