<svg width="48" height="48" viewBox="0 0 48 48" fill="none" xmlns="http://www.w3.org/2000/svg">
<path d="M18.5461 39.8552H30.7031C31.0744 39.8552 31.4306 39.7077 31.6931 39.4451C31.9557 39.1826 32.1031 38.8265 32.1031 38.4552V30.4052C32.1033 30.2959 32.1322 30.1886 32.1871 30.0941C32.242 29.9996 32.3209 29.9212 32.4157 29.8669C32.5106 29.8127 32.6181 29.7844 32.7274 29.7849C32.8366 29.7855 32.9439 29.8149 33.0381 29.8702L41.4061 34.7922C41.6183 34.9175 41.8599 34.9846 42.1064 34.9867C42.3528 34.9888 42.5955 34.9257 42.8098 34.804C43.024 34.6822 43.2024 34.506 43.3268 34.2933C43.4512 34.0805 43.5172 33.8386 43.5181 33.5922L43.6702 14.6922C43.6726 14.446 43.6101 14.2036 43.489 13.9893C43.3679 13.775 43.1924 13.5964 42.9802 13.4715C42.7681 13.3467 42.5267 13.28 42.2806 13.2782C42.0344 13.2763 41.7921 13.3395 41.5781 13.4612L32.8032 18.4332C32.7319 18.4738 32.6511 18.4951 32.569 18.4947C32.4869 18.4943 32.4064 18.4724 32.3354 18.431C32.2645 18.3897 32.2058 18.3304 32.165 18.2592C32.1242 18.188 32.1029 18.1072 32.1031 18.0252V9.83116C32.1031 9.45986 31.9557 9.10375 31.6931 8.8412C31.4306 8.57865 31.0744 8.43115 30.7031 8.43115H6.85114C6.47983 8.43115 6.12376 8.57865 5.86121 8.8412C5.59866 9.10375 5.45117 9.45986 5.45117 9.83116V26.8552" stroke="#1E50A2" stroke-width="2" stroke-linecap="round" stroke-linejoin="round"/>
<path d="M5.22266 34.1953H16.6817" stroke="#1E50A2" stroke-width="2" stroke-linecap="round" stroke-linejoin="round"/>
<path d="M10.9512 39.9254V28.4663" stroke="#1E50A2" stroke-width="2" stroke-linecap="round" stroke-linejoin="round"/>
</svg>
