<svg xmlns="http://www.w3.org/2000/svg" width="16.876" height="24.463" viewBox="0 0 16.876 24.463">
  <defs>
    <style>
      .cls-1 {
        fill: #666;
      }
    </style>
  </defs>
  <g id="voice1099" transform="translate(-50 -1253)">
    <g id="组_1098" data-name="组 1098" transform="translate(-570.676 386.621)">
      <g id="组_1095" data-name="组 1095">
        <path id="路径_1055" data-name="路径 1055" class="cls-1" d="M632.341,890.842a1,1,0,0,1-.724-1.692,16.086,16.086,0,0,0,0-21.081,1,1,0,1,1,1.447-1.38,18.078,18.078,0,0,1,0,23.842A1,1,0,0,1,632.341,890.842Z"/>
      </g>
      <g id="组_1096" data-name="组 1096">
        <path id="路径_1056" data-name="路径 1056" class="cls-1" d="M629.016,887.756a1,1,0,0,1-.7-1.716,10.974,10.974,0,0,0,0-14.86,1,1,0,0,1,1.4-1.432,12.966,12.966,0,0,1,0,17.724A1,1,0,0,1,629.016,887.756Z"/>
      </g>
      <g id="组_1097" data-name="组 1097">
        <path id="路径_1057" data-name="路径 1057" class="cls-1" d="M625.727,884.613a1,1,0,0,1-.643-1.767,5.892,5.892,0,0,0-.04-8.505,1,1,0,1,1,1.264-1.551,7.879,7.879,0,0,1,.059,11.589A.992.992,0,0,1,625.727,884.613Z"/>
      </g>
    </g>
    <path id="多边形_6" data-name="多边形 6" class="cls-1" d="M1.106,1.789a1,1,0,0,1,1.789,0l.382.764A1,1,0,0,1,2.382,4H1.618A1,1,0,0,1,.724,2.553Z" transform="translate(50 1267) rotate(-90)"/>
  </g>
</svg>
