<svg width="48" height="48" viewBox="0 0 48 48" fill="none" xmlns="http://www.w3.org/2000/svg">
<path d="M40.121 12.6379L31.541 4.24219H9.341C8.95228 4.24245 8.57956 4.3932 8.30469 4.66132C8.02982 4.92944 7.87526 5.29302 7.875 5.6722V41.8546C7.875 42.3584 8.08009 42.8416 8.44519 43.1979C8.8103 43.5542 9.30555 43.7545 9.82202 43.7548H38.179C38.6955 43.7545 39.1907 43.5542 39.5558 43.1979C39.9209 42.8416 40.126 42.3584 40.126 41.8546V12.6379H40.121Z" fill="#1E50A2"/>
<path d="M32.4413 19.702L29.3262 31.1025C29.2942 31.2215 29.2225 31.3268 29.1226 31.4019C29.0227 31.4771 28.9001 31.5178 28.7739 31.5177H26.616C26.4894 31.5175 26.3665 31.4764 26.2663 31.4009C26.1662 31.3253 26.0945 31.2196 26.0624 31.1001L23.9882 23.3598C23.871 22.9075 23.8018 22.4446 23.7816 21.9785H23.7483C23.7095 22.4443 23.6322 22.9062 23.517 23.3598L21.3949 31.1037C21.3622 31.2223 21.2904 31.3271 21.1906 31.4019C21.0907 31.4767 20.9684 31.5174 20.8424 31.5177H18.5653C18.4392 31.5176 18.3167 31.4768 18.2168 31.4017C18.1169 31.3266 18.0452 31.2214 18.0129 31.1025L14.8979 19.702C14.8755 19.6193 14.8729 19.5327 14.8902 19.4488C14.9075 19.3649 14.9443 19.2861 14.9978 19.2183C15.0513 19.1504 15.12 19.0955 15.1986 19.0577C15.2773 19.0198 15.3638 19.0001 15.4515 19H17.244C17.3745 19.0001 17.501 19.0437 17.6026 19.1236C17.7042 19.2035 17.7747 19.3149 17.8025 19.4392L19.6085 27.4795C19.7026 27.943 19.7606 28.4128 19.782 28.8848H19.8398C19.8765 28.3977 19.9627 27.9153 20.097 27.4447L22.3655 19.4152C22.3989 19.2973 22.471 19.1933 22.5708 19.1192C22.6705 19.045 22.7925 19.0048 22.9179 19.0048H24.9404C25.0681 19.0047 25.1923 19.0463 25.2929 19.1231C25.3935 19.1999 25.4647 19.3074 25.4953 19.4284L27.5572 27.5503C27.6609 27.9845 27.73 28.4258 27.7639 28.8704H27.8057C27.8271 28.4081 27.8909 27.9487 27.9964 27.4975L29.763 19.4416C29.7901 19.3167 29.8603 19.2047 29.962 19.1243C30.0637 19.0439 30.1906 19 30.3215 19H31.8889C31.9765 19 32.0631 19.0198 32.1417 19.0576C32.2203 19.0954 32.289 19.1504 32.3424 19.2183C32.3958 19.2861 32.4325 19.365 32.4496 19.4489C32.4668 19.5328 32.4639 19.6194 32.4413 19.702Z" fill="white"/>
<path d="M31.543 11.1103C31.543 11.5168 31.7085 11.9065 32.0031 12.1939C32.2977 12.4813 32.6973 12.6428 33.114 12.6428H40.1249L31.543 4.24414V11.1103Z" fill="#EDF6FD"/>
</svg>
